<svg width="121" height="27" viewBox="0 0 121 27" fill="none" xmlns="http://www.w3.org/2000/svg">
<path d="M6.056 26.36C4.16 26.36 2.708 25.82 1.7 24.74C0.716 23.66 0.224 22.136 0.224 20.168V6.632C0.224 4.664 0.716 3.14 1.7 2.06C2.708 0.979999 4.16 0.439999 6.056 0.439999C7.952 0.439999 9.392 0.979999 10.376 2.06C11.384 3.14 11.888 4.664 11.888 6.632V9.296H8.144V6.38C8.144 4.82 7.484 4.04 6.164 4.04C4.844 4.04 4.184 4.82 4.184 6.38V20.456C4.184 21.992 4.844 22.76 6.164 22.76C7.484 22.76 8.144 21.992 8.144 20.456V16.604H11.888V20.168C11.888 22.136 11.384 23.66 10.376 24.74C9.392 25.82 7.952 26.36 6.056 26.36ZM20.9173 0.799998H26.2813L30.3853 26H26.4253L25.7053 20.996V21.068H21.2053L20.4853 26H16.8133L20.9173 0.799998ZM25.2373 17.648L23.4733 5.192H23.4013L21.6733 17.648H25.2373ZM35.9065 0.799998H41.7745C43.8145 0.799998 45.3025 1.28 46.2385 2.24C47.1745 3.176 47.6425 4.628 47.6425 6.596V8.144C47.6425 10.76 46.7785 12.416 45.0505 13.112V13.184C46.0105 13.472 46.6825 14.06 47.0665 14.948C47.4745 15.836 47.6785 17.024 47.6785 18.512V22.94C47.6785 23.66 47.7025 24.248 47.7505 24.704C47.7985 25.136 47.9185 25.568 48.1105 26H44.0785C43.9345 25.592 43.8385 25.208 43.7905 24.848C43.7425 24.488 43.7185 23.84 43.7185 22.904V18.296C43.7185 17.144 43.5265 16.34 43.1425 15.884C42.7825 15.428 42.1465 15.2 41.2345 15.2H39.8665V26H35.9065V0.799998ZM41.3065 11.6C42.0985 11.6 42.6865 11.396 43.0705 10.988C43.4785 10.58 43.6825 9.896 43.6825 8.936V6.992C43.6825 6.08 43.5145 5.42 43.1785 5.012C42.8665 4.604 42.3625 4.4 41.6665 4.4H39.8665V11.6H41.3065Z" fill="#23C861"/>
<path d="M54.026 0.799998H60.074C62.042 0.799998 63.518 1.328 64.502 2.384C65.486 3.44 65.978 4.988 65.978 7.028V19.772C65.978 21.812 65.486 23.36 64.502 24.416C63.518 25.472 62.042 26 60.074 26H54.026V0.799998ZM60.002 22.4C60.65 22.4 61.142 22.208 61.478 21.824C61.838 21.44 62.018 20.816 62.018 19.952V6.848C62.018 5.984 61.838 5.36 61.478 4.976C61.142 4.592 60.65 4.4 60.002 4.4H57.986V22.4H60.002ZM75.2407 0.799998H80.6047L84.7087 26H80.7487L80.0287 20.996V21.068H75.5287L74.8087 26H71.1367L75.2407 0.799998ZM79.5607 17.648L77.7967 5.192H77.7247L75.9967 17.648H79.5607ZM90.2299 0.799998H95.1979L99.0499 15.884H99.1219V0.799998H102.65V26H98.5819L93.8299 7.604H93.7579V26H90.2299V0.799998ZM114.917 26.36C112.973 26.36 111.485 25.808 110.453 24.704C109.421 23.6 108.905 22.04 108.905 20.024V6.776C108.905 4.76 109.421 3.2 110.453 2.096C111.485 0.991999 112.973 0.439999 114.917 0.439999C116.861 0.439999 118.349 0.991999 119.381 2.096C120.413 3.2 120.929 4.76 120.929 6.776V20.024C120.929 22.04 120.413 23.6 119.381 24.704C118.349 25.808 116.861 26.36 114.917 26.36ZM114.917 22.76C116.285 22.76 116.969 21.932 116.969 20.276V6.524C116.969 4.868 116.285 4.04 114.917 4.04C113.549 4.04 112.865 4.868 112.865 6.524V20.276C112.865 21.932 113.549 22.76 114.917 22.76Z" fill="white"/>
</svg>
