<svg width="378" height="322" viewBox="0 0 378 322" fill="none" xmlns="http://www.w3.org/2000/svg">
<g style="mix-blend-mode:exclusion">
<path d="M344.777 38.3633H33.2227C14.9266 38.3633 0 51.0647 0 66.6641V255.336C0 270.882 14.8601 283.637 33.2227 283.637H344.777C363.028 283.637 378 270.978 378 255.336V66.6641C378 51.1175 363.14 38.3633 344.777 38.3633ZM340.19 57.2305L189.704 185.422L37.9174 57.2305H340.19ZM22.1484 251.429V70.4809L128.815 160.565L22.1484 251.429ZM37.8096 264.77L144.543 173.849L181.942 205.433C186.271 209.09 193.258 209.078 197.569 205.405L234.035 174.341L340.19 264.77H37.8096ZM355.852 251.429L249.696 161L355.852 70.5708V251.429Z" fill="url(#paint0_linear)"/>
</g>
<defs>
<linearGradient id="paint0_linear" x1="189" y1="38.3633" x2="189" y2="283.637" gradientUnits="userSpaceOnUse">
<stop stop-color="#23C861"/>
<stop offset="1" stop-color="#1A717C"/>
</linearGradient>
</defs>
</svg>
