<svg width="500" height="500" viewBox="0 0 500 500" fill="none" xmlns="http://www.w3.org/2000/svg">
<rect width="500" height="500" fill="#0A5A65"/>
<path d="M190.512 227.56H194.424C196.392 227.56 197.832 227.968 198.744 228.784C199.672 229.584 200.136 230.896 200.136 232.72C200.136 235.216 199.336 236.728 197.736 237.256L200.496 247H197.88L195.336 237.88H193.224V247H190.512V227.56ZM194.256 235.936C195.424 235.936 196.256 235.704 196.752 235.24C197.264 234.776 197.52 233.936 197.52 232.72C197.52 231.92 197.432 231.296 197.256 230.848C197.08 230.384 196.768 230.048 196.32 229.84C195.872 229.616 195.24 229.504 194.424 229.504H193.224V235.936H194.256ZM208.333 240.136L204.133 227.56H206.653L209.629 236.944L212.557 227.56H215.101L210.925 240.136V247H208.333V240.136ZM219.312 227.56H224.136C225.816 227.56 227.032 228.016 227.784 228.928C228.552 229.84 228.936 231.176 228.936 232.936C228.936 234.52 228.528 235.752 227.712 236.632C226.896 237.512 225.712 237.952 224.16 237.952H222.024V247H219.312V227.56ZM223.272 236.008C224.072 236.008 224.688 235.92 225.12 235.744C225.568 235.568 225.888 235.264 226.08 234.832C226.272 234.4 226.368 233.776 226.368 232.96C226.368 231.968 226.296 231.24 226.152 230.776C226.008 230.312 225.72 229.984 225.288 229.792C224.872 229.6 224.208 229.504 223.296 229.504H222.024V236.008H223.272ZM235.379 229.576H232.091V227.56H241.283V229.576H238.091V247H235.379V229.576ZM250.525 247.216C248.621 247.216 247.253 246.68 246.421 245.608C245.605 244.52 245.197 242.952 245.197 240.904V233.536C245.197 231.52 245.613 229.992 246.445 228.952C247.277 227.912 248.637 227.392 250.525 227.392C252.413 227.392 253.765 227.92 254.581 228.976C255.413 230.016 255.829 231.536 255.829 233.536V240.928C255.829 242.944 255.413 244.496 254.581 245.584C253.749 246.672 252.397 247.216 250.525 247.216ZM250.525 245.08C251.533 245.08 252.213 244.784 252.565 244.192C252.917 243.6 253.093 242.704 253.093 241.504V232.984C253.093 231.8 252.917 230.928 252.565 230.368C252.213 229.792 251.533 229.504 250.525 229.504C249.501 229.504 248.813 229.792 248.461 230.368C248.109 230.928 247.933 231.8 247.933 232.984V241.504C247.933 242.704 248.109 243.6 248.461 244.192C248.813 244.784 249.501 245.08 250.525 245.08ZM260.895 227.56H264.807C266.775 227.56 268.215 227.968 269.127 228.784C270.055 229.584 270.519 230.896 270.519 232.72C270.519 235.216 269.719 236.728 268.119 237.256L270.879 247H268.263L265.719 237.88H263.607V247H260.895V227.56ZM264.639 235.936C265.807 235.936 266.639 235.704 267.135 235.24C267.647 234.776 267.903 233.936 267.903 232.72C267.903 231.92 267.815 231.296 267.639 230.848C267.463 230.384 267.151 230.048 266.703 229.84C266.255 229.616 265.623 229.504 264.807 229.504H263.607V235.936H264.639ZM275.74 227.56H283.276V229.576H278.452V236.008H282.364V237.928H278.452V245.056H283.324V247H275.74V227.56ZM286.954 227.56H289.498L292.57 241.888L295.498 227.56H297.97L293.674 247H291.298L286.954 227.56ZM302.575 227.56H305.239V247H302.575V227.56ZM310.784 227.56H318.32V229.576H313.496V236.008H317.408V237.928H313.496V245.056H318.368V247H310.784V227.56ZM322.309 227.56H324.565L326.653 241.528L329.269 227.632H331.189L333.829 241.6L335.869 227.56H338.077L334.957 247H332.989L330.277 232.6L327.541 247H325.477L322.309 227.56ZM347.426 247.216C345.794 247.216 344.546 246.712 343.682 245.704C342.834 244.696 342.362 243.312 342.266 241.552L344.666 240.904C344.746 242.152 344.986 243.16 345.386 243.928C345.802 244.696 346.482 245.08 347.426 245.08C348.13 245.08 348.658 244.888 349.01 244.504C349.378 244.104 349.562 243.536 349.562 242.8C349.562 242 349.394 241.336 349.058 240.808C348.722 240.28 348.186 239.696 347.45 239.056L344.186 236.176C343.53 235.6 343.05 234.984 342.746 234.328C342.458 233.656 342.314 232.84 342.314 231.88C342.314 230.456 342.722 229.352 343.538 228.568C344.354 227.784 345.466 227.392 346.874 227.392C348.41 227.392 349.57 227.8 350.354 228.616C351.138 229.432 351.61 230.696 351.77 232.408L349.466 233.032C349.386 231.896 349.162 231.024 348.794 230.416C348.442 229.792 347.802 229.48 346.874 229.48C346.186 229.48 345.658 229.664 345.29 230.032C344.922 230.384 344.738 230.912 344.738 231.616C344.738 232.192 344.834 232.68 345.026 233.08C345.218 233.464 345.546 233.856 346.01 234.256L349.298 237.136C350.146 237.888 350.818 238.704 351.314 239.584C351.826 240.464 352.082 241.464 352.082 242.584C352.082 244.008 351.65 245.136 350.786 245.968C349.922 246.8 348.802 247.216 347.426 247.216Z" fill="white"/>
<path d="M151.5 210C136.336 210 124 222.336 124 237.5C124 252.664 136.336 265 151.5 265C166.664 265 179 252.664 179 237.5C179 222.336 166.664 210 151.5 210ZM151.5 261.422C138.309 261.422 127.578 250.691 127.578 237.5C127.578 224.309 138.309 213.578 151.5 213.578C164.691 213.578 175.422 224.309 175.422 237.5C175.422 250.691 164.691 261.422 151.5 261.422Z" fill="white"/>
<path d="M162.718 241.981C161.886 241.449 160.78 241.692 160.247 242.524C158.519 245.226 155.576 246.839 152.373 246.839C147.224 246.839 143.035 242.649 143.035 237.5C143.035 232.35 147.224 228.161 152.373 228.161C155.481 228.161 158.376 229.701 160.119 232.28C160.672 233.098 161.783 233.314 162.602 232.76C163.421 232.208 163.636 231.095 163.083 230.277C160.675 226.712 156.671 224.583 152.373 224.583C145.251 224.583 139.457 230.378 139.457 237.5C139.457 244.622 145.251 250.417 152.373 250.417C156.802 250.417 160.872 248.187 163.261 244.452C163.793 243.62 163.55 242.514 162.718 241.981Z" fill="#23C861"/>
</svg>
