<svg width="100" height="40" viewBox="0 0 100 40" fill="none" xmlns="http://www.w3.org/2000/svg">
<rect width="100" height="40" rx="20" fill="#23C861"/>
<path d="M14.2836 20.1377V23.4258H16.2523C16.3891 23.4258 16.487 23.4531 16.5463 23.5078C16.6055 23.5579 16.6352 23.6263 16.6352 23.7129C16.6352 23.7949 16.6055 23.8633 16.5463 23.918C16.487 23.9727 16.3891 24 16.2523 24H12.9369C12.8002 24 12.7022 23.9727 12.643 23.918C12.5837 23.8633 12.5541 23.7949 12.5541 23.7129C12.5541 23.6263 12.5837 23.5579 12.643 23.5078C12.7022 23.4531 12.8002 23.4258 12.9369 23.4258H13.7094V16.5762H12.9369C12.8002 16.5762 12.7022 16.5511 12.643 16.501C12.5837 16.4463 12.5541 16.3757 12.5541 16.2891C12.5541 16.2025 12.5883 16.1296 12.6566 16.0703C12.7068 16.0247 12.8002 16.002 12.9369 16.002H19.2602V17.9775C19.2602 18.1143 19.2328 18.2122 19.1781 18.2715C19.1234 18.3307 19.0551 18.3604 18.973 18.3604C18.8865 18.3604 18.8158 18.3307 18.7611 18.2715C18.7064 18.2122 18.6791 18.1143 18.6791 17.9775V16.5762H14.2836V19.5635H16.3412V18.9141C16.3412 18.7773 16.3686 18.6794 16.4232 18.6201C16.4779 18.5609 16.5486 18.5312 16.6352 18.5312C16.7172 18.5312 16.7855 18.5609 16.8402 18.6201C16.8949 18.6794 16.9223 18.7773 16.9223 18.9141V20.7871C16.9223 20.9238 16.8949 21.0218 16.8402 21.0811C16.7855 21.1403 16.7172 21.1699 16.6352 21.1699C16.5486 21.1699 16.4779 21.1403 16.4232 21.0811C16.3686 21.0218 16.3412 20.9238 16.3412 20.7871V20.1377H14.2836ZM28.583 21.1768H22.7314C22.8317 21.9196 23.1416 22.5189 23.6611 22.9746C24.1852 23.4258 24.8324 23.6514 25.6025 23.6514C26.0309 23.6514 26.4798 23.5807 26.9492 23.4395C27.4186 23.2982 27.8014 23.1113 28.0977 22.8789C28.1842 22.8105 28.2594 22.7764 28.3232 22.7764C28.3962 22.7764 28.46 22.806 28.5146 22.8652C28.5693 22.9199 28.5967 22.986 28.5967 23.0635C28.5967 23.141 28.5602 23.2161 28.4873 23.2891C28.2686 23.5169 27.8789 23.7311 27.3184 23.9316C26.7624 24.1276 26.1904 24.2256 25.6025 24.2256C24.6182 24.2256 23.7956 23.9043 23.1348 23.2617C22.4785 22.6146 22.1504 21.833 22.1504 20.917C22.1504 20.083 22.458 19.3675 23.0732 18.7705C23.693 18.1735 24.4587 17.875 25.3701 17.875C26.3089 17.875 27.0814 18.1826 27.6875 18.7979C28.2936 19.4085 28.5921 20.2015 28.583 21.1768ZM28.002 20.5957C27.888 19.9622 27.5872 19.4473 27.0996 19.0508C26.6165 18.6543 26.04 18.4561 25.3701 18.4561C24.7002 18.4561 24.1237 18.652 23.6406 19.0439C23.1576 19.4359 22.8568 19.9531 22.7383 20.5957H28.002ZM36.9352 24V23.1729C36.1012 23.8747 35.2102 24.2256 34.2623 24.2256C33.5742 24.2256 33.0364 24.0524 32.649 23.7061C32.2617 23.3551 32.068 22.9268 32.068 22.4209C32.068 21.8649 32.3232 21.3796 32.8336 20.9648C33.344 20.5501 34.0891 20.3428 35.0689 20.3428C35.3333 20.3428 35.6204 20.361 35.9303 20.3975C36.2402 20.4294 36.5751 20.4818 36.9352 20.5547V19.625C36.9352 19.3105 36.7893 19.0371 36.4977 18.8047C36.206 18.5723 35.7685 18.4561 35.1852 18.4561C34.7385 18.4561 34.1119 18.5859 33.3053 18.8457C33.1594 18.8913 33.066 18.9141 33.025 18.9141C32.9521 18.9141 32.8883 18.8867 32.8336 18.832C32.7835 18.7773 32.7584 18.709 32.7584 18.627C32.7584 18.5495 32.7812 18.488 32.8268 18.4424C32.8906 18.374 33.148 18.2806 33.5992 18.1621C34.3102 17.9707 34.8479 17.875 35.2125 17.875C35.9371 17.875 36.5022 18.055 36.9078 18.415C37.3134 18.7705 37.5162 19.1738 37.5162 19.625V23.4258H38.2818C38.4231 23.4258 38.5234 23.4531 38.5826 23.5078C38.6419 23.5579 38.6715 23.6263 38.6715 23.7129C38.6715 23.7949 38.6419 23.8633 38.5826 23.918C38.5234 23.9727 38.4231 24 38.2818 24H36.9352ZM36.9352 21.1426C36.6663 21.0651 36.3814 21.0081 36.0807 20.9717C35.7799 20.9352 35.4631 20.917 35.1305 20.917C34.2965 20.917 33.6448 21.097 33.1754 21.457C32.8199 21.7259 32.6422 22.0472 32.6422 22.4209C32.6422 22.7673 32.7766 23.0589 33.0455 23.2959C33.3189 23.5329 33.7154 23.6514 34.235 23.6514C34.7317 23.6514 35.192 23.5534 35.6158 23.3574C36.0442 23.1569 36.484 22.8402 36.9352 22.4072V21.1426ZM43.9133 18.0801H47.0305C47.1672 18.0801 47.2652 18.1074 47.3244 18.1621C47.3837 18.2168 47.4133 18.2874 47.4133 18.374C47.4133 18.4561 47.3837 18.5244 47.3244 18.5791C47.2652 18.6338 47.1672 18.6611 47.0305 18.6611H43.9133V22.4824C43.9133 22.8151 44.0454 23.0931 44.3098 23.3164C44.5786 23.5397 44.9706 23.6514 45.4855 23.6514C45.8729 23.6514 46.2922 23.5944 46.7434 23.4805C47.1945 23.362 47.5454 23.2298 47.7961 23.084C47.8872 23.0247 47.9624 22.9951 48.0217 22.9951C48.0946 22.9951 48.1584 23.0247 48.2131 23.084C48.2678 23.1387 48.2951 23.2048 48.2951 23.2822C48.2951 23.3506 48.2655 23.4144 48.2062 23.4736C48.0604 23.624 47.7049 23.7881 47.1398 23.9658C46.5793 24.139 46.0415 24.2256 45.5266 24.2256C44.8566 24.2256 44.3234 24.0684 43.927 23.7539C43.5305 23.4395 43.3322 23.0156 43.3322 22.4824V18.6611H42.2727C42.1359 18.6611 42.038 18.6338 41.9787 18.5791C41.9195 18.5244 41.8898 18.4538 41.8898 18.3672C41.8898 18.2852 41.9195 18.2168 41.9787 18.1621C42.038 18.1074 42.1359 18.0801 42.2727 18.0801H43.3322V16.3848C43.3322 16.248 43.3596 16.1501 43.4143 16.0908C43.4689 16.0316 43.5373 16.002 43.6193 16.002C43.7059 16.002 43.7766 16.0316 43.8312 16.0908C43.8859 16.1501 43.9133 16.248 43.9133 16.3848V18.0801ZM56.866 24V23.1592C56.0822 23.8701 55.2345 24.2256 54.323 24.2256C53.7625 24.2256 53.3364 24.0729 53.0447 23.7676C52.6665 23.3665 52.4773 22.8994 52.4773 22.3662V18.6611H51.7049C51.5682 18.6611 51.4702 18.6338 51.4109 18.5791C51.3517 18.5244 51.3221 18.4538 51.3221 18.3672C51.3221 18.2852 51.3517 18.2168 51.4109 18.1621C51.4702 18.1074 51.5682 18.0801 51.7049 18.0801H53.0516V22.3662C53.0516 22.7399 53.17 23.0475 53.407 23.2891C53.644 23.5306 53.9402 23.6514 54.2957 23.6514C55.2299 23.6514 56.0867 23.223 56.866 22.3662V18.6611H55.8064C55.6697 18.6611 55.5717 18.6338 55.5125 18.5791C55.4533 18.5244 55.4236 18.4538 55.4236 18.3672C55.4236 18.2852 55.4533 18.2168 55.5125 18.1621C55.5717 18.1074 55.6697 18.0801 55.8064 18.0801H57.4402V23.4258H57.9256C58.0623 23.4258 58.1603 23.4531 58.2195 23.5078C58.2788 23.5579 58.3084 23.6263 58.3084 23.7129C58.3084 23.7949 58.2788 23.8633 58.2195 23.918C58.1603 23.9727 58.0623 24 57.9256 24H56.866ZM64.0219 18.0801V19.5293C64.7693 18.8548 65.3275 18.4219 65.6967 18.2305C66.0704 18.0345 66.4145 17.9365 66.7289 17.9365C67.0707 17.9365 67.3874 18.0527 67.6791 18.2852C67.9753 18.513 68.1234 18.6862 68.1234 18.8047C68.1234 18.8913 68.0938 18.9642 68.0346 19.0234C67.9799 19.0781 67.9092 19.1055 67.8227 19.1055C67.7771 19.1055 67.7383 19.0986 67.7064 19.085C67.6745 19.0667 67.6153 19.0143 67.5287 18.9277C67.3692 18.7682 67.2302 18.6589 67.1117 18.5996C66.9932 18.5404 66.877 18.5107 66.7631 18.5107C66.5124 18.5107 66.2094 18.611 65.8539 18.8115C65.503 19.012 64.8923 19.502 64.0219 20.2812V23.4258H66.5648C66.7061 23.4258 66.8064 23.4531 66.8656 23.5078C66.9249 23.5579 66.9545 23.6263 66.9545 23.7129C66.9545 23.7949 66.9249 23.8633 66.8656 23.918C66.8064 23.9727 66.7061 24 66.5648 24H62.06C61.9232 24 61.8253 23.9749 61.766 23.9248C61.7068 23.8701 61.6771 23.8018 61.6771 23.7197C61.6771 23.6423 61.7045 23.5785 61.7592 23.5283C61.8184 23.4736 61.9187 23.4463 62.06 23.4463H63.4477V18.6611H62.3881C62.2514 18.6611 62.1534 18.6338 62.0941 18.5791C62.0349 18.5244 62.0053 18.4538 62.0053 18.3672C62.0053 18.2852 62.0326 18.2168 62.0873 18.1621C62.1465 18.1074 62.2468 18.0801 62.3881 18.0801H64.0219ZM77.624 21.1768H71.7725C71.8727 21.9196 72.1826 22.5189 72.7021 22.9746C73.2262 23.4258 73.8734 23.6514 74.6436 23.6514C75.0719 23.6514 75.5208 23.5807 75.9902 23.4395C76.4596 23.2982 76.8424 23.1113 77.1387 22.8789C77.2253 22.8105 77.3005 22.7764 77.3643 22.7764C77.4372 22.7764 77.501 22.806 77.5557 22.8652C77.6104 22.9199 77.6377 22.986 77.6377 23.0635C77.6377 23.141 77.6012 23.2161 77.5283 23.2891C77.3096 23.5169 76.9199 23.7311 76.3594 23.9316C75.8034 24.1276 75.2314 24.2256 74.6436 24.2256C73.6592 24.2256 72.8366 23.9043 72.1758 23.2617C71.5195 22.6146 71.1914 21.833 71.1914 20.917C71.1914 20.083 71.499 19.3675 72.1143 18.7705C72.734 18.1735 73.4997 17.875 74.4111 17.875C75.3499 17.875 76.1224 18.1826 76.7285 18.7979C77.3346 19.4085 77.6331 20.2015 77.624 21.1768ZM77.043 20.5957C76.929 19.9622 76.6283 19.4473 76.1406 19.0508C75.6576 18.6543 75.0811 18.4561 74.4111 18.4561C73.7412 18.4561 73.1647 18.652 72.6816 19.0439C72.1986 19.4359 71.8978 19.9531 71.7793 20.5957H77.043ZM86.2223 18.4561C86.2223 18.3239 86.2496 18.2282 86.3043 18.1689C86.359 18.1097 86.4273 18.0801 86.5094 18.0801C86.596 18.0801 86.6666 18.1097 86.7213 18.1689C86.776 18.2282 86.8033 18.3285 86.8033 18.4697V19.4541C86.8033 19.5908 86.776 19.6888 86.7213 19.748C86.6666 19.8073 86.596 19.8369 86.5094 19.8369C86.4319 19.8369 86.3658 19.8118 86.3111 19.7617C86.261 19.7116 86.2314 19.6296 86.2223 19.5156C86.1949 19.2422 86.0536 19.0166 85.7984 18.8389C85.4247 18.5837 84.9303 18.4561 84.315 18.4561C83.6725 18.4561 83.1734 18.5859 82.818 18.8457C82.5491 19.0417 82.4146 19.2604 82.4146 19.502C82.4146 19.7754 82.5742 20.0033 82.8932 20.1855C83.1119 20.3132 83.5266 20.4111 84.1373 20.4795C84.9348 20.5661 85.4885 20.6641 85.7984 20.7734C86.2405 20.9329 86.5686 21.154 86.7828 21.4365C87.0016 21.7191 87.1109 22.0244 87.1109 22.3525C87.1109 22.8402 86.8762 23.2754 86.4068 23.6582C85.9374 24.0365 85.2493 24.2256 84.3424 24.2256C83.4355 24.2256 82.6926 23.9954 82.1139 23.5352C82.1139 23.6901 82.1048 23.7904 82.0865 23.8359C82.0683 23.8815 82.0341 23.9202 81.984 23.9521C81.9384 23.984 81.886 24 81.8268 24C81.7447 24 81.6764 23.9704 81.6217 23.9111C81.567 23.8519 81.5396 23.7539 81.5396 23.6172V22.4346C81.5396 22.2979 81.5647 22.1999 81.6148 22.1406C81.6695 22.0814 81.7402 22.0518 81.8268 22.0518C81.9088 22.0518 81.9771 22.0814 82.0318 22.1406C82.0911 22.1953 82.1207 22.2705 82.1207 22.3662C82.1207 22.5758 82.1731 22.7513 82.2779 22.8926C82.4374 23.1113 82.6904 23.2936 83.0367 23.4395C83.3876 23.5807 83.816 23.6514 84.3219 23.6514C85.0693 23.6514 85.6253 23.5124 85.9898 23.2344C86.3544 22.9564 86.5367 22.6624 86.5367 22.3525C86.5367 21.9971 86.3521 21.7122 85.983 21.498C85.6093 21.2839 85.0647 21.1403 84.3492 21.0674C83.6383 20.9945 83.1279 20.8988 82.818 20.7803C82.5081 20.6618 82.2665 20.484 82.0934 20.2471C81.9202 20.0101 81.8336 19.7549 81.8336 19.4814C81.8336 18.9893 82.0751 18.5996 82.5582 18.3125C83.0413 18.0208 83.6178 17.875 84.2877 17.875C85.0807 17.875 85.7255 18.0687 86.2223 18.4561Z" fill="white"/>
</svg>
