<svg width="100" height="40" viewBox="0 0 100 40" fill="none" xmlns="http://www.w3.org/2000/svg">
<rect width="100" height="40" rx="20" fill="#23C861"/>
<path d="M10.9707 19.5898C10.9707 20.2461 10.8379 20.8555 10.5723 21.418C10.3066 21.9766 9.93945 22.4121 9.4707 22.7246C9.00586 23.0371 8.50586 23.1934 7.9707 23.1934C7.17773 23.1934 6.47852 22.8574 5.87305 22.1855C5.27148 21.5098 4.9707 20.6445 4.9707 19.5898C4.9707 18.5312 5.27148 17.666 5.87305 16.9941C6.47852 16.3223 7.17773 15.9863 7.9707 15.9863C8.50586 15.9863 9.00586 16.1426 9.4707 16.4551C9.93555 16.7676 10.3008 17.2031 10.5664 17.7617C10.8359 18.3203 10.9707 18.9297 10.9707 19.5898ZM10.4727 19.5898C10.4727 18.7891 10.2402 18.0703 9.77539 17.4336C9.31055 16.7969 8.70898 16.4785 7.9707 16.4785C7.2793 16.4785 6.6875 16.7832 6.19531 17.3926C5.70703 17.998 5.46289 18.7305 5.46289 19.5898C5.46289 20.5039 5.71875 21.252 6.23047 21.834C6.74609 22.4121 7.32617 22.7012 7.9707 22.7012C8.70898 22.7012 9.31055 22.3848 9.77539 21.752C10.2402 21.1152 10.4727 20.3945 10.4727 19.5898ZM18.0535 23V22.2793C17.3816 22.8887 16.6551 23.1934 15.8738 23.1934C15.3934 23.1934 15.0281 23.0625 14.7781 22.8008C14.4539 22.457 14.2918 22.0566 14.2918 21.5996V18.4238H13.6297C13.5125 18.4238 13.4285 18.4004 13.3777 18.3535C13.327 18.3066 13.3016 18.2461 13.3016 18.1719C13.3016 18.1016 13.327 18.043 13.3777 17.9961C13.4285 17.9492 13.5125 17.9258 13.6297 17.9258H14.784V21.5996C14.784 21.9199 14.8855 22.1836 15.0887 22.3906C15.2918 22.5977 15.5457 22.7012 15.8504 22.7012C16.6512 22.7012 17.3855 22.334 18.0535 21.5996V18.4238H17.1453C17.0281 18.4238 16.9441 18.4004 16.8934 18.3535C16.8426 18.3066 16.8172 18.2461 16.8172 18.1719C16.8172 18.1016 16.8426 18.043 16.8934 17.9961C16.9441 17.9492 17.0281 17.9258 17.1453 17.9258H18.5457V22.5078H18.9617C19.0789 22.5078 19.1629 22.5312 19.2137 22.5781C19.2645 22.6211 19.2898 22.6797 19.2898 22.7539C19.2898 22.8242 19.2645 22.8828 19.2137 22.9297C19.1629 22.9766 19.0789 23 18.9617 23H18.0535ZM24.1871 17.9258V19.168C24.8277 18.5898 25.3062 18.2188 25.6227 18.0547C25.943 17.8867 26.2379 17.8027 26.5074 17.8027C26.8004 17.8027 27.0719 17.9023 27.3219 18.1016C27.5758 18.2969 27.7027 18.4453 27.7027 18.5469C27.7027 18.6211 27.6773 18.6836 27.6266 18.7344C27.5797 18.7812 27.5191 18.8047 27.4449 18.8047C27.4059 18.8047 27.3727 18.7988 27.3453 18.7871C27.318 18.7715 27.2672 18.7266 27.193 18.6523C27.0562 18.5156 26.9371 18.4219 26.8355 18.3711C26.734 18.3203 26.6344 18.2949 26.5367 18.2949C26.3219 18.2949 26.0621 18.3809 25.7574 18.5527C25.4566 18.7246 24.9332 19.1445 24.1871 19.8125V22.5078H26.3668C26.4879 22.5078 26.5738 22.5312 26.6246 22.5781C26.6754 22.6211 26.7008 22.6797 26.7008 22.7539C26.7008 22.8242 26.6754 22.8828 26.6246 22.9297C26.5738 22.9766 26.4879 23 26.3668 23H22.5055C22.3883 23 22.3043 22.9785 22.2535 22.9355C22.2027 22.8887 22.1773 22.8301 22.1773 22.7598C22.1773 22.6934 22.2008 22.6387 22.2477 22.5957C22.2984 22.5488 22.3844 22.5254 22.5055 22.5254H23.6949V18.4238H22.7867C22.6695 18.4238 22.5855 18.4004 22.5348 18.3535C22.484 18.3066 22.4586 18.2461 22.4586 18.1719C22.4586 18.1016 22.482 18.043 22.5289 17.9961C22.5797 17.9492 22.6656 17.9258 22.7867 17.9258H24.1871ZM44.5988 19.5898C44.5988 20.2461 44.466 20.8555 44.2004 21.418C43.9348 21.9766 43.5676 22.4121 43.0988 22.7246C42.634 23.0371 42.134 23.1934 41.5988 23.1934C40.8059 23.1934 40.1066 22.8574 39.5012 22.1855C38.8996 21.5098 38.5988 20.6445 38.5988 19.5898C38.5988 18.5312 38.8996 17.666 39.5012 16.9941C40.1066 16.3223 40.8059 15.9863 41.5988 15.9863C42.134 15.9863 42.634 16.1426 43.0988 16.4551C43.5637 16.7676 43.9289 17.2031 44.1945 17.7617C44.4641 18.3203 44.5988 18.9297 44.5988 19.5898ZM44.1008 19.5898C44.1008 18.7891 43.8684 18.0703 43.4035 17.4336C42.9387 16.7969 42.3371 16.4785 41.5988 16.4785C40.9074 16.4785 40.3156 16.7832 39.8234 17.3926C39.3352 17.998 39.091 18.7305 39.091 19.5898C39.091 20.5039 39.3469 21.252 39.8586 21.834C40.3742 22.4121 40.9543 22.7012 41.5988 22.7012C42.3371 22.7012 42.9387 22.3848 43.4035 21.752C43.8684 21.1152 44.1008 20.3945 44.1008 19.5898ZM48.1426 17.9258V18.8223C48.4355 18.4668 48.75 18.1992 49.0859 18.0195C49.4219 17.8398 49.8184 17.75 50.2754 17.75C50.7598 17.75 51.207 17.8633 51.6172 18.0898C52.0273 18.3164 52.3438 18.6328 52.5664 19.0391C52.793 19.4414 52.9062 19.8652 52.9062 20.3105C52.9062 21.0176 52.6523 21.623 52.1445 22.127C51.6406 22.627 51.0195 22.877 50.2812 22.877C49.4023 22.877 48.6895 22.5195 48.1426 21.8047V24.7695H49.3379C49.4551 24.7695 49.5391 24.791 49.5898 24.834C49.6406 24.8809 49.666 24.9414 49.666 25.0156C49.666 25.0859 49.6406 25.1445 49.5898 25.1914C49.5391 25.2383 49.4551 25.2617 49.3379 25.2617H46.9883C46.8711 25.2617 46.7871 25.2383 46.7363 25.1914C46.6855 25.1484 46.6602 25.0898 46.6602 25.0156C46.6602 24.9414 46.6855 24.8809 46.7363 24.834C46.7871 24.791 46.8711 24.7695 46.9883 24.7695H47.6504V18.4238H46.9883C46.8711 18.4238 46.7871 18.4004 46.7363 18.3535C46.6855 18.3066 46.6602 18.2461 46.6602 18.1719C46.6602 18.1016 46.6855 18.043 46.7363 17.9961C46.7871 17.9492 46.8711 17.9258 46.9883 17.9258H48.1426ZM52.4082 20.3105C52.4082 19.7441 52.2012 19.2598 51.7871 18.8574C51.377 18.4512 50.875 18.248 50.2812 18.248C49.6836 18.248 49.1777 18.4512 48.7637 18.8574C48.3496 19.2637 48.1426 19.748 48.1426 20.3105C48.1426 20.877 48.3496 21.3633 48.7637 21.7695C49.1777 22.1758 49.6836 22.3789 50.2812 22.3789C50.8711 22.3789 51.373 22.1777 51.7871 21.7754C52.2012 21.3691 52.4082 20.8809 52.4082 20.3105ZM58.6473 15.4004V16.6719H57.9207V15.4004H58.6473ZM58.6648 17.9258V22.5078H60.5984C60.7195 22.5078 60.8055 22.5312 60.8563 22.5781C60.907 22.6211 60.9324 22.6797 60.9324 22.7539C60.9324 22.8242 60.907 22.8828 60.8563 22.9297C60.8055 22.9766 60.7195 23 60.5984 23H56.2391C56.1219 23 56.0379 22.9766 55.9871 22.9297C55.9363 22.8828 55.9109 22.8242 55.9109 22.7539C55.9109 22.6797 55.9363 22.6211 55.9871 22.5781C56.0379 22.5312 56.1219 22.5078 56.2391 22.5078H58.1727V18.4238H56.7371C56.6199 18.4238 56.534 18.4004 56.4793 18.3535C56.4285 18.3066 56.4031 18.248 56.4031 18.1777C56.4031 18.1035 56.4285 18.043 56.4793 17.9961C56.5301 17.9492 56.616 17.9258 56.7371 17.9258H58.6648ZM65.2203 17.9258V18.6699C65.5641 18.3223 65.8746 18.082 66.152 17.9492C66.4293 17.8164 66.7418 17.75 67.0895 17.75C67.4645 17.75 67.8063 17.8301 68.1148 17.9902C68.3336 18.1074 68.5309 18.3027 68.7066 18.5762C68.8863 18.8457 68.9762 19.123 68.9762 19.4082V22.5078H69.3922C69.5094 22.5078 69.5934 22.5312 69.6441 22.5781C69.6949 22.6211 69.7203 22.6797 69.7203 22.7539C69.7203 22.8242 69.6949 22.8828 69.6441 22.9297C69.5934 22.9766 69.5094 23 69.3922 23H68.0738C67.9527 23 67.8668 22.9766 67.816 22.9297C67.7652 22.8828 67.7398 22.8242 67.7398 22.7539C67.7398 22.6797 67.7652 22.6211 67.816 22.5781C67.8668 22.5312 67.9527 22.5078 68.0738 22.5078H68.484V19.4902C68.484 19.1426 68.357 18.8496 68.1031 18.6113C67.8492 18.3691 67.5094 18.248 67.0836 18.248C66.7594 18.248 66.4781 18.3145 66.2398 18.4473C66.0016 18.5762 65.6617 18.9004 65.2203 19.4199V22.5078H65.777C65.8941 22.5078 65.9781 22.5312 66.0289 22.5781C66.0797 22.6211 66.1051 22.6797 66.1051 22.7539C66.1051 22.8242 66.0797 22.8828 66.0289 22.9297C65.9781 22.9766 65.8941 23 65.777 23H64.1715C64.0543 23 63.9703 22.9766 63.9195 22.9297C63.8688 22.8828 63.8434 22.8242 63.8434 22.7539C63.8434 22.6797 63.8688 22.6211 63.9195 22.5781C63.9703 22.5312 64.0543 22.5078 64.1715 22.5078H64.7281V18.4238H64.3121C64.1949 18.4238 64.1109 18.4004 64.0602 18.3535C64.0094 18.3066 63.984 18.2461 63.984 18.1719C63.984 18.1016 64.0094 18.043 64.0602 17.9961C64.1109 17.9492 64.1949 17.9258 64.3121 17.9258H65.2203ZM75.4613 15.4004V16.6719H74.7348V15.4004H75.4613ZM75.4789 17.9258V22.5078H77.4125C77.5336 22.5078 77.6195 22.5312 77.6703 22.5781C77.7211 22.6211 77.7465 22.6797 77.7465 22.7539C77.7465 22.8242 77.7211 22.8828 77.6703 22.9297C77.6195 22.9766 77.5336 23 77.4125 23H73.0531C72.9359 23 72.852 22.9766 72.8012 22.9297C72.7504 22.8828 72.725 22.8242 72.725 22.7539C72.725 22.6797 72.7504 22.6211 72.8012 22.5781C72.852 22.5312 72.9359 22.5078 73.0531 22.5078H74.9867V18.4238H73.5512C73.434 18.4238 73.348 18.4004 73.2934 18.3535C73.2426 18.3066 73.2172 18.248 73.2172 18.1777C73.2172 18.1035 73.2426 18.043 73.2934 17.9961C73.3441 17.9492 73.4301 17.9258 73.5512 17.9258H75.4789ZM86.3762 20.4746C86.3762 21.2246 86.1066 21.8652 85.5676 22.3965C85.0324 22.9277 84.3859 23.1934 83.6281 23.1934C82.8625 23.1934 82.2121 22.9277 81.677 22.3965C81.1418 21.8613 80.8742 21.2207 80.8742 20.4746C80.8742 19.7246 81.1418 19.084 81.677 18.5527C82.2121 18.0176 82.8625 17.75 83.6281 17.75C84.3859 17.75 85.0324 18.0156 85.5676 18.5469C86.1066 19.0781 86.3762 19.7207 86.3762 20.4746ZM85.8781 20.4746C85.8781 19.8574 85.6574 19.332 85.216 18.8984C84.7785 18.4648 84.2473 18.248 83.6223 18.248C82.9973 18.248 82.4641 18.4668 82.0227 18.9043C81.5852 19.3379 81.3664 19.8613 81.3664 20.4746C81.3664 21.084 81.5852 21.6074 82.0227 22.0449C82.4641 22.4824 82.9973 22.7012 83.6223 22.7012C84.2473 22.7012 84.7785 22.4844 85.216 22.0508C85.6574 21.6133 85.8781 21.0879 85.8781 20.4746ZM90.4414 17.9258V18.6699C90.7852 18.3223 91.0957 18.082 91.373 17.9492C91.6504 17.8164 91.9629 17.75 92.3105 17.75C92.6855 17.75 93.0273 17.8301 93.3359 17.9902C93.5547 18.1074 93.752 18.3027 93.9277 18.5762C94.1074 18.8457 94.1973 19.123 94.1973 19.4082V22.5078H94.6133C94.7305 22.5078 94.8145 22.5312 94.8652 22.5781C94.916 22.6211 94.9414 22.6797 94.9414 22.7539C94.9414 22.8242 94.916 22.8828 94.8652 22.9297C94.8145 22.9766 94.7305 23 94.6133 23H93.2949C93.1738 23 93.0879 22.9766 93.0371 22.9297C92.9863 22.8828 92.9609 22.8242 92.9609 22.7539C92.9609 22.6797 92.9863 22.6211 93.0371 22.5781C93.0879 22.5312 93.1738 22.5078 93.2949 22.5078H93.7051V19.4902C93.7051 19.1426 93.5781 18.8496 93.3242 18.6113C93.0703 18.3691 92.7305 18.248 92.3047 18.248C91.9805 18.248 91.6992 18.3145 91.4609 18.4473C91.2227 18.5762 90.8828 18.9004 90.4414 19.4199V22.5078H90.998C91.1152 22.5078 91.1992 22.5312 91.25 22.5781C91.3008 22.6211 91.3262 22.6797 91.3262 22.7539C91.3262 22.8242 91.3008 22.8828 91.25 22.9297C91.1992 22.9766 91.1152 23 90.998 23H89.3926C89.2754 23 89.1914 22.9766 89.1406 22.9297C89.0898 22.8828 89.0645 22.8242 89.0645 22.7539C89.0645 22.6797 89.0898 22.6211 89.1406 22.5781C89.1914 22.5312 89.2754 22.5078 89.3926 22.5078H89.9492V18.4238H89.5332C89.416 18.4238 89.332 18.4004 89.2812 18.3535C89.2305 18.3066 89.2051 18.2461 89.2051 18.1719C89.2051 18.1016 89.2305 18.043 89.2812 17.9961C89.332 17.9492 89.416 17.9258 89.5332 17.9258H90.4414Z" fill="white"/>
</svg>
