<svg width="50" height="26" viewBox="0 0 50 26" fill="none" xmlns="http://www.w3.org/2000/svg">
<path d="M4.968 13.112L0.612 0.799998H4.788L7.452 8.936H7.524L10.26 0.799998H14.004L9.648 13.112L14.22 26H10.044L7.164 17.216H7.092L4.14 26H0.396L4.968 13.112ZM19.701 0.799998H25.569C27.609 0.799998 29.097 1.28 30.033 2.24C30.969 3.176 31.437 4.628 31.437 6.596V8.144C31.437 10.76 30.573 12.416 28.845 13.112V13.184C29.805 13.472 30.477 14.06 30.861 14.948C31.269 15.836 31.473 17.024 31.473 18.512V22.94C31.473 23.66 31.497 24.248 31.545 24.704C31.593 25.136 31.713 25.568 31.905 26H27.873C27.729 25.592 27.633 25.208 27.585 24.848C27.537 24.488 27.513 23.84 27.513 22.904V18.296C27.513 17.144 27.321 16.34 26.937 15.884C26.577 15.428 25.941 15.2 25.029 15.2H23.661V26H19.701V0.799998ZM25.101 11.6C25.893 11.6 26.481 11.396 26.865 10.988C27.273 10.58 27.477 9.896 27.477 8.936V6.992C27.477 6.08 27.309 5.42 26.973 5.012C26.661 4.604 26.157 4.4 25.461 4.4H23.661V11.6H25.101ZM37.8205 0.799998H43.6525C45.6205 0.799998 47.0965 1.328 48.0805 2.384C49.0645 3.44 49.5565 4.988 49.5565 7.028V9.512C49.5565 11.552 49.0645 13.1 48.0805 14.156C47.0965 15.212 45.6205 15.74 43.6525 15.74H41.7805V26H37.8205V0.799998ZM43.6525 12.14C44.3005 12.14 44.7805 11.96 45.0925 11.6C45.4285 11.24 45.5965 10.628 45.5965 9.764V6.776C45.5965 5.912 45.4285 5.3 45.0925 4.94C44.7805 4.58 44.3005 4.4 43.6525 4.4H41.7805V12.14H43.6525Z" fill="#23C861"/>
</svg>
