<svg width="313" height="19" viewBox="0 0 313 19" fill="none" xmlns="http://www.w3.org/2000/svg">
<path d="M6.74443 1.328C7.95643 1.328 9.03643 1.604 9.98443 2.156C10.9324 2.696 11.6644 3.452 12.1804 4.424C12.7084 5.384 12.9724 6.482 12.9724 7.718C12.9724 8.954 12.7084 10.058 12.1804 11.03C11.6644 11.99 10.9324 12.746 9.98443 13.298C9.03643 13.838 7.95643 14.108 6.74443 14.108C5.52043 14.108 4.43443 13.838 3.48643 13.298C2.53843 12.746 1.80043 11.99 1.27243 11.03C0.744434 10.058 0.480434 8.954 0.480434 7.718C0.480434 6.482 0.744434 5.384 1.27243 4.424C1.80043 3.452 2.53843 2.696 3.48643 2.156C4.43443 1.604 5.52043 1.328 6.74443 1.328ZM6.74443 2.048C5.62843 2.048 4.65643 2.288 3.82843 2.768C3.00043 3.236 2.36443 3.896 1.92043 4.748C1.47643 5.6 1.25443 6.59 1.25443 7.718C1.25443 8.834 1.47643 9.824 1.92043 10.688C2.36443 11.54 3.00043 12.206 3.82843 12.686C4.65643 13.166 5.62843 13.406 6.74443 13.406C7.84843 13.406 8.80843 13.166 9.62444 12.686C10.4524 12.206 11.0884 11.54 11.5324 10.688C11.9764 9.824 12.1984 8.834 12.1984 7.718C12.1984 6.59 11.9764 5.6 11.5324 4.748C11.0884 3.896 10.4524 3.236 9.62444 2.768C8.80843 2.288 7.84843 2.048 6.74443 2.048ZM6.70843 3.542C5.98843 3.542 5.32843 3.71 4.72843 4.046C4.14043 4.382 3.67243 4.868 3.32443 5.504C2.97643 6.128 2.80243 6.86 2.80243 7.7C2.80243 8.54 2.97643 9.278 3.32443 9.914C3.67243 10.538 4.14043 11.024 4.72843 11.372C5.32843 11.708 5.98843 11.876 6.70843 11.876C7.60843 11.876 8.38844 11.636 9.04844 11.156C9.70844 10.664 10.1584 10.01 10.3984 9.194H8.88644C8.52644 10.19 7.80043 10.688 6.70843 10.688C5.98843 10.688 5.40043 10.43 4.94443 9.914C4.48843 9.398 4.26043 8.666 4.26043 7.718C4.26043 6.758 4.48843 6.02 4.94443 5.504C5.40043 4.988 5.98843 4.73 6.70843 4.73C7.23643 4.73 7.69243 4.862 8.07643 5.126C8.46043 5.378 8.73043 5.744 8.88644 6.224H10.3984C10.1704 5.372 9.72643 4.712 9.06643 4.244C8.40643 3.776 7.62043 3.542 6.70843 3.542ZM23.0271 7.718C23.0271 6.494 23.3031 5.396 23.8551 4.424C24.4071 3.44 25.1571 2.672 26.1051 2.12C27.0651 1.568 28.1271 1.292 29.2911 1.292C30.6591 1.292 31.8531 1.622 32.8731 2.282C33.8931 2.942 34.6371 3.878 35.1051 5.09H33.1431C32.7951 4.334 32.2911 3.752 31.6311 3.344C30.9831 2.936 30.2031 2.732 29.2911 2.732C28.4151 2.732 27.6291 2.936 26.9331 3.344C26.2371 3.752 25.6911 4.334 25.2951 5.09C24.8991 5.834 24.7011 6.71 24.7011 7.718C24.7011 8.714 24.8991 9.59 25.2951 10.346C25.6911 11.09 26.2371 11.666 26.9331 12.074C27.6291 12.482 28.4151 12.686 29.2911 12.686C30.2031 12.686 30.9831 12.488 31.6311 12.092C32.2911 11.684 32.7951 11.102 33.1431 10.346H35.1051C34.6371 11.546 33.8931 12.476 32.8731 13.136C31.8531 13.784 30.6591 14.108 29.2911 14.108C28.1271 14.108 27.0651 13.838 26.1051 13.298C25.1571 12.746 24.4071 11.984 23.8551 11.012C23.3031 10.04 23.0271 8.942 23.0271 7.718ZM43.6454 14.162C42.7214 14.162 41.8814 13.952 41.1254 13.532C40.3814 13.112 39.7934 12.518 39.3614 11.75C38.9414 10.97 38.7314 10.07 38.7314 9.05C38.7314 8.042 38.9474 7.154 39.3794 6.386C39.8234 5.606 40.4234 5.012 41.1794 4.604C41.9354 4.184 42.7814 3.974 43.7174 3.974C44.6534 3.974 45.4994 4.184 46.2554 4.604C47.0114 5.012 47.6054 5.6 48.0374 6.368C48.4814 7.136 48.7034 8.03 48.7034 9.05C48.7034 10.07 48.4754 10.97 48.0194 11.75C47.5754 12.518 46.9694 13.112 46.2014 13.532C45.4334 13.952 44.5814 14.162 43.6454 14.162ZM43.6454 12.722C44.2334 12.722 44.7854 12.584 45.3014 12.308C45.8174 12.032 46.2314 11.618 46.5434 11.066C46.8674 10.514 47.0294 9.842 47.0294 9.05C47.0294 8.258 46.8734 7.586 46.5614 7.034C46.2494 6.482 45.8414 6.074 45.3374 5.81C44.8334 5.534 44.2874 5.396 43.6994 5.396C43.0994 5.396 42.5474 5.534 42.0434 5.81C41.5514 6.074 41.1554 6.482 40.8554 7.034C40.5554 7.586 40.4054 8.258 40.4054 9.05C40.4054 9.854 40.5494 10.532 40.8374 11.084C41.1374 11.636 41.5334 12.05 42.0254 12.326C42.5174 12.59 43.0574 12.722 43.6454 12.722ZM54.2951 5.954C54.6191 5.39 55.0991 4.922 55.7351 4.55C56.3831 4.166 57.1331 3.974 57.9851 3.974C58.8611 3.974 59.6531 4.184 60.3611 4.604C61.0811 5.024 61.6451 5.618 62.0531 6.386C62.4611 7.142 62.6651 8.024 62.6651 9.032C62.6651 10.028 62.4611 10.916 62.0531 11.696C61.6451 12.476 61.0811 13.082 60.3611 13.514C59.6531 13.946 58.8611 14.162 57.9851 14.162C57.1451 14.162 56.4011 13.976 55.7531 13.604C55.1171 13.22 54.6311 12.746 54.2951 12.182V18.68H52.6571V4.136H54.2951V5.954ZM60.9911 9.032C60.9911 8.288 60.8411 7.64 60.5411 7.088C60.2411 6.536 59.8331 6.116 59.3171 5.828C58.8131 5.54 58.2551 5.396 57.6431 5.396C57.0431 5.396 56.4851 5.546 55.9691 5.846C55.4651 6.134 55.0571 6.56 54.7451 7.124C54.4451 7.676 54.2951 8.318 54.2951 9.05C54.2951 9.794 54.4451 10.448 54.7451 11.012C55.0571 11.564 55.4651 11.99 55.9691 12.29C56.4851 12.578 57.0431 12.722 57.6431 12.722C58.2551 12.722 58.8131 12.578 59.3171 12.29C59.8331 11.99 60.2411 11.564 60.5411 11.012C60.8411 10.448 60.9911 9.788 60.9911 9.032ZM75.1172 4.136L69.1772 18.644H67.4852L69.4292 13.892L65.4512 4.136H67.2692L70.3652 12.128L73.4252 4.136H75.1172ZM80.2017 5.738C80.4897 5.174 80.8977 4.736 81.4257 4.424C81.9657 4.112 82.6197 3.956 83.3877 3.956V5.648H82.9557C81.1197 5.648 80.2017 6.644 80.2017 8.636V14H78.5637V4.136H80.2017V5.738ZM87.9246 2.534C87.6126 2.534 87.3486 2.426 87.1326 2.21C86.9166 1.994 86.8086 1.73 86.8086 1.418C86.8086 1.106 86.9166 0.842 87.1326 0.625999C87.3486 0.409999 87.6126 0.301999 87.9246 0.301999C88.2246 0.301999 88.4766 0.409999 88.6806 0.625999C88.8966 0.842 89.0046 1.106 89.0046 1.418C89.0046 1.73 88.8966 1.994 88.6806 2.21C88.4766 2.426 88.2246 2.534 87.9246 2.534ZM88.7166 4.136V14H87.0786V4.136H88.7166ZM97.3763 3.974C98.2283 3.974 98.9723 4.16 99.6083 4.532C100.256 4.904 100.736 5.372 101.048 5.936V4.136H102.704V14.216C102.704 15.116 102.512 15.914 102.128 16.61C101.744 17.318 101.192 17.87 100.472 18.266C99.7643 18.662 98.9363 18.86 97.9883 18.86C96.6923 18.86 95.6123 18.554 94.7483 17.942C93.8843 17.33 93.3743 16.496 93.2183 15.44H94.8383C95.0183 16.04 95.3903 16.52 95.9543 16.88C96.5183 17.252 97.1963 17.438 97.9883 17.438C98.8883 17.438 99.6203 17.156 100.184 16.592C100.76 16.028 101.048 15.236 101.048 14.216V12.146C100.724 12.722 100.244 13.202 99.6083 13.586C98.9723 13.97 98.2283 14.162 97.3763 14.162C96.5003 14.162 95.7023 13.946 94.9823 13.514C94.2743 13.082 93.7163 12.476 93.3083 11.696C92.9003 10.916 92.6963 10.028 92.6963 9.032C92.6963 8.024 92.9003 7.142 93.3083 6.386C93.7163 5.618 94.2743 5.024 94.9823 4.604C95.7023 4.184 96.5003 3.974 97.3763 3.974ZM101.048 9.05C101.048 8.306 100.898 7.658 100.598 7.106C100.298 6.554 99.8903 6.134 99.3743 5.846C98.8703 5.546 98.3123 5.396 97.7003 5.396C97.0883 5.396 96.5303 5.54 96.0263 5.828C95.5223 6.116 95.1203 6.536 94.8203 7.088C94.5203 7.64 94.3703 8.288 94.3703 9.032C94.3703 9.788 94.5203 10.448 94.8203 11.012C95.1203 11.564 95.5223 11.99 96.0263 12.29C96.5303 12.578 97.0883 12.722 97.7003 12.722C98.3123 12.722 98.8703 12.578 99.3743 12.29C99.8903 11.99 100.298 11.564 100.598 11.012C100.898 10.448 101.048 9.794 101.048 9.05ZM112.168 3.956C112.912 3.956 113.584 4.118 114.184 4.442C114.784 4.754 115.252 5.228 115.588 5.864C115.936 6.5 116.11 7.274 116.11 8.186V14H114.49V8.42C114.49 7.436 114.244 6.686 113.752 6.17C113.26 5.642 112.588 5.378 111.736 5.378C110.872 5.378 110.182 5.648 109.666 6.188C109.162 6.728 108.91 7.514 108.91 8.546V14H107.272V0.68H108.91V5.54C109.234 5.036 109.678 4.646 110.242 4.37C110.818 4.094 111.46 3.956 112.168 3.956ZM122.584 5.486V11.3C122.584 11.78 122.686 12.122 122.89 12.326C123.094 12.518 123.448 12.614 123.952 12.614H125.158V14H123.682C122.77 14 122.086 13.79 121.63 13.37C121.174 12.95 120.946 12.26 120.946 11.3V5.486H119.668V4.136H120.946V1.652H122.584V4.136H125.158V5.486H122.584ZM145.045 5.09C144.697 4.358 144.193 3.794 143.533 3.398C142.873 2.99 142.105 2.786 141.229 2.786C140.353 2.786 139.561 2.99 138.853 3.398C138.157 3.794 137.605 4.37 137.197 5.126C136.801 5.87 136.603 6.734 136.603 7.718C136.603 8.702 136.801 9.566 137.197 10.31C137.605 11.054 138.157 11.63 138.853 12.038C139.561 12.434 140.353 12.632 141.229 12.632C142.453 12.632 143.461 12.266 144.253 11.534C145.045 10.802 145.507 9.812 145.639 8.564H140.635V7.232H147.385V8.492C147.289 9.524 146.965 10.472 146.413 11.336C145.861 12.188 145.135 12.866 144.235 13.37C143.335 13.862 142.333 14.108 141.229 14.108C140.065 14.108 139.003 13.838 138.043 13.298C137.083 12.746 136.321 11.984 135.757 11.012C135.205 10.04 134.929 8.942 134.929 7.718C134.929 6.494 135.205 5.396 135.757 4.424C136.321 3.44 137.083 2.678 138.043 2.138C139.003 1.586 140.065 1.31 141.229 1.31C142.561 1.31 143.737 1.64 144.757 2.3C145.789 2.96 146.539 3.89 147.007 5.09H145.045ZM152.989 5.738C153.277 5.174 153.685 4.736 154.213 4.424C154.753 4.112 155.407 3.956 156.175 3.956V5.648H155.743C153.907 5.648 152.989 6.644 152.989 8.636V14H151.351V4.136H152.989V5.738ZM168.866 8.69C168.866 9.002 168.848 9.332 168.812 9.68H160.928C160.988 10.652 161.318 11.414 161.918 11.966C162.53 12.506 163.268 12.776 164.132 12.776C164.84 12.776 165.428 12.614 165.896 12.29C166.376 11.954 166.712 11.51 166.904 10.958H168.668C168.404 11.906 167.876 12.68 167.084 13.28C166.292 13.868 165.308 14.162 164.132 14.162C163.196 14.162 162.356 13.952 161.612 13.532C160.88 13.112 160.304 12.518 159.884 11.75C159.464 10.97 159.254 10.07 159.254 9.05C159.254 8.03 159.458 7.136 159.866 6.368C160.274 5.6 160.844 5.012 161.576 4.604C162.32 4.184 163.172 3.974 164.132 3.974C165.068 3.974 165.896 4.178 166.616 4.586C167.336 4.994 167.888 5.558 168.272 6.278C168.668 6.986 168.866 7.79 168.866 8.69ZM167.174 8.348C167.174 7.724 167.036 7.19 166.76 6.746C166.484 6.29 166.106 5.948 165.626 5.72C165.158 5.48 164.636 5.36 164.06 5.36C163.232 5.36 162.524 5.624 161.936 6.152C161.36 6.68 161.03 7.412 160.946 8.348H167.174ZM181.828 8.69C181.828 9.002 181.81 9.332 181.774 9.68H173.89C173.95 10.652 174.28 11.414 174.88 11.966C175.492 12.506 176.23 12.776 177.094 12.776C177.802 12.776 178.39 12.614 178.858 12.29C179.338 11.954 179.674 11.51 179.866 10.958H181.63C181.366 11.906 180.838 12.68 180.046 13.28C179.254 13.868 178.27 14.162 177.094 14.162C176.158 14.162 175.318 13.952 174.574 13.532C173.842 13.112 173.266 12.518 172.846 11.75C172.426 10.97 172.216 10.07 172.216 9.05C172.216 8.03 172.42 7.136 172.828 6.368C173.236 5.6 173.806 5.012 174.538 4.604C175.282 4.184 176.134 3.974 177.094 3.974C178.03 3.974 178.858 4.178 179.578 4.586C180.298 4.994 180.85 5.558 181.234 6.278C181.63 6.986 181.828 7.79 181.828 8.69ZM180.136 8.348C180.136 7.724 179.998 7.19 179.722 6.746C179.446 6.29 179.068 5.948 178.588 5.72C178.12 5.48 177.598 5.36 177.022 5.36C176.194 5.36 175.486 5.624 174.898 6.152C174.322 6.68 173.992 7.412 173.908 8.348H180.136ZM190.596 3.956C191.796 3.956 192.768 4.322 193.512 5.054C194.256 5.774 194.628 6.818 194.628 8.186V14H193.008V8.42C193.008 7.436 192.762 6.686 192.27 6.17C191.778 5.642 191.106 5.378 190.254 5.378C189.39 5.378 188.7 5.648 188.184 6.188C187.68 6.728 187.428 7.514 187.428 8.546V14H185.79V4.136H187.428V5.54C187.752 5.036 188.19 4.646 188.742 4.37C189.306 4.094 189.924 3.956 190.596 3.956ZM209.681 14.126C208.853 14.126 208.109 13.982 207.449 13.694C206.801 13.394 206.291 12.986 205.919 12.47C205.547 11.942 205.355 11.336 205.343 10.652H207.089C207.149 11.24 207.389 11.738 207.809 12.146C208.241 12.542 208.865 12.74 209.681 12.74C210.461 12.74 211.073 12.548 211.517 12.164C211.973 11.768 212.201 11.264 212.201 10.652C212.201 10.172 212.069 9.782 211.805 9.482C211.541 9.182 211.211 8.954 210.815 8.798C210.419 8.642 209.885 8.474 209.213 8.294C208.385 8.078 207.719 7.862 207.215 7.646C206.723 7.43 206.297 7.094 205.937 6.638C205.589 6.17 205.415 5.546 205.415 4.766C205.415 4.082 205.589 3.476 205.937 2.948C206.285 2.42 206.771 2.012 207.395 1.724C208.031 1.436 208.757 1.292 209.573 1.292C210.749 1.292 211.709 1.586 212.453 2.174C213.209 2.762 213.635 3.542 213.731 4.514H211.931C211.871 4.034 211.619 3.614 211.175 3.254C210.731 2.882 210.143 2.696 209.411 2.696C208.727 2.696 208.169 2.876 207.737 3.236C207.305 3.584 207.089 4.076 207.089 4.712C207.089 5.168 207.215 5.54 207.467 5.828C207.731 6.116 208.049 6.338 208.421 6.494C208.805 6.638 209.339 6.806 210.023 6.998C210.851 7.226 211.517 7.454 212.021 7.682C212.525 7.898 212.957 8.24 213.317 8.708C213.677 9.164 213.857 9.788 213.857 10.58C213.857 11.192 213.695 11.768 213.371 12.308C213.047 12.848 212.567 13.286 211.931 13.622C211.295 13.958 210.545 14.126 209.681 14.126ZM220.065 5.486V11.3C220.065 11.78 220.167 12.122 220.371 12.326C220.575 12.518 220.929 12.614 221.433 12.614H222.639V14H221.163C220.251 14 219.567 13.79 219.111 13.37C218.655 12.95 218.427 12.26 218.427 11.3V5.486H217.149V4.136H218.427V1.652H220.065V4.136H222.639V5.486H220.065ZM230.726 14.162C229.802 14.162 228.962 13.952 228.206 13.532C227.462 13.112 226.874 12.518 226.442 11.75C226.022 10.97 225.812 10.07 225.812 9.05C225.812 8.042 226.028 7.154 226.46 6.386C226.904 5.606 227.504 5.012 228.26 4.604C229.016 4.184 229.862 3.974 230.798 3.974C231.734 3.974 232.58 4.184 233.336 4.604C234.092 5.012 234.686 5.6 235.118 6.368C235.562 7.136 235.784 8.03 235.784 9.05C235.784 10.07 235.556 10.97 235.1 11.75C234.656 12.518 234.05 13.112 233.282 13.532C232.514 13.952 231.662 14.162 230.726 14.162ZM230.726 12.722C231.314 12.722 231.866 12.584 232.382 12.308C232.898 12.032 233.312 11.618 233.624 11.066C233.948 10.514 234.11 9.842 234.11 9.05C234.11 8.258 233.954 7.586 233.642 7.034C233.33 6.482 232.922 6.074 232.418 5.81C231.914 5.534 231.368 5.396 230.78 5.396C230.18 5.396 229.628 5.534 229.124 5.81C228.632 6.074 228.236 6.482 227.936 7.034C227.636 7.586 227.486 8.258 227.486 9.05C227.486 9.854 227.63 10.532 227.918 11.084C228.218 11.636 228.614 12.05 229.106 12.326C229.598 12.59 230.138 12.722 230.726 12.722ZM244.544 3.956C245.744 3.956 246.716 4.322 247.46 5.054C248.204 5.774 248.576 6.818 248.576 8.186V14H246.956V8.42C246.956 7.436 246.71 6.686 246.218 6.17C245.726 5.642 245.054 5.378 244.202 5.378C243.338 5.378 242.648 5.648 242.132 6.188C241.628 6.728 241.376 7.514 241.376 8.546V14H239.738V4.136H241.376V5.54C241.7 5.036 242.138 4.646 242.69 4.37C243.254 4.094 243.872 3.956 244.544 3.956ZM262.051 8.69C262.051 9.002 262.033 9.332 261.997 9.68H254.113C254.173 10.652 254.503 11.414 255.103 11.966C255.715 12.506 256.453 12.776 257.317 12.776C258.025 12.776 258.613 12.614 259.081 12.29C259.561 11.954 259.897 11.51 260.089 10.958H261.853C261.589 11.906 261.061 12.68 260.269 13.28C259.477 13.868 258.493 14.162 257.317 14.162C256.381 14.162 255.541 13.952 254.797 13.532C254.065 13.112 253.489 12.518 253.069 11.75C252.649 10.97 252.439 10.07 252.439 9.05C252.439 8.03 252.643 7.136 253.051 6.368C253.459 5.6 254.029 5.012 254.761 4.604C255.505 4.184 256.357 3.974 257.317 3.974C258.253 3.974 259.081 4.178 259.801 4.586C260.521 4.994 261.073 5.558 261.457 6.278C261.853 6.986 262.051 7.79 262.051 8.69ZM260.359 8.348C260.359 7.724 260.221 7.19 259.945 6.746C259.669 6.29 259.291 5.948 258.811 5.72C258.343 5.48 257.821 5.36 257.245 5.36C256.417 5.36 255.709 5.624 255.121 6.152C254.545 6.68 254.215 7.412 254.131 8.348H260.359ZM272.144 12.686C273.668 11.462 274.862 10.46 275.726 9.68C276.59 8.888 277.316 8.066 277.904 7.214C278.504 6.35 278.804 5.504 278.804 4.676C278.804 3.896 278.612 3.284 278.228 2.84C277.856 2.384 277.25 2.156 276.41 2.156C275.594 2.156 274.958 2.414 274.502 2.93C274.058 3.434 273.818 4.112 273.782 4.964H272.198C272.246 3.62 272.654 2.582 273.422 1.85C274.19 1.118 275.18 0.751999 276.392 0.751999C277.628 0.751999 278.606 1.094 279.326 1.778C280.058 2.462 280.424 3.404 280.424 4.604C280.424 5.6 280.124 6.572 279.524 7.52C278.936 8.456 278.264 9.284 277.508 10.004C276.752 10.712 275.786 11.54 274.61 12.488H280.802V13.856H272.144V12.686ZM284.496 7.358C284.496 5.294 284.832 3.686 285.504 2.534C286.176 1.37 287.352 0.788 289.032 0.788C290.7 0.788 291.87 1.37 292.542 2.534C293.214 3.686 293.55 5.294 293.55 7.358C293.55 9.458 293.214 11.09 292.542 12.254C291.87 13.418 290.7 14 289.032 14C287.352 14 286.176 13.418 285.504 12.254C284.832 11.09 284.496 9.458 284.496 7.358ZM291.93 7.358C291.93 6.314 291.858 5.432 291.714 4.712C291.582 3.98 291.3 3.392 290.868 2.948C290.448 2.504 289.836 2.282 289.032 2.282C288.216 2.282 287.592 2.504 287.16 2.948C286.74 3.392 286.458 3.98 286.314 4.712C286.182 5.432 286.116 6.314 286.116 7.358C286.116 8.438 286.182 9.344 286.314 10.076C286.458 10.808 286.74 11.396 287.16 11.84C287.592 12.284 288.216 12.506 289.032 12.506C289.836 12.506 290.448 12.284 290.868 11.84C291.3 11.396 291.582 10.808 291.714 10.076C291.858 9.344 291.93 8.438 291.93 7.358ZM297.4 12.686C298.924 11.462 300.118 10.46 300.982 9.68C301.846 8.888 302.572 8.066 303.16 7.214C303.76 6.35 304.06 5.504 304.06 4.676C304.06 3.896 303.868 3.284 303.484 2.84C303.112 2.384 302.506 2.156 301.666 2.156C300.85 2.156 300.214 2.414 299.758 2.93C299.314 3.434 299.074 4.112 299.038 4.964H297.454C297.502 3.62 297.91 2.582 298.678 1.85C299.446 1.118 300.436 0.751999 301.648 0.751999C302.884 0.751999 303.862 1.094 304.582 1.778C305.314 2.462 305.68 3.404 305.68 4.604C305.68 5.6 305.38 6.572 304.78 7.52C304.192 8.456 303.52 9.284 302.764 10.004C302.008 10.712 301.042 11.54 299.866 12.488H306.058V13.856H297.4V12.686ZM309.32 2.48V0.985999H312.704V14H311.048V2.48H309.32Z" fill="white"/>
</svg>
