<svg width="50" height="50" viewBox="0 0 50 50" fill="none" xmlns="http://www.w3.org/2000/svg">
<path d="M12.4439 13.2603C13.2412 13.1226 13.7756 12.365 13.6383 11.5677C12.8582 7.04727 16.3452 2.92969 20.9034 2.92969C25.4479 2.92969 28.941 7.02782 28.1715 11.5498C28.0361 12.3474 28.5725 13.1039 29.3701 13.2397C30.1678 13.3759 30.9242 12.8387 31.06 12.0411C32.1304 5.74722 27.2728 0 20.9034 0C14.5413 0 9.66035 5.74646 10.7513 12.0659C10.8891 12.8654 11.6497 13.3976 12.4439 13.2603Z" fill="white"/>
<path d="M36.4906 23.5005C35.3928 21.3456 32.7778 20.4853 30.6313 21.5474C29.6333 19.5885 27.351 18.6631 25.2766 19.3833V10.4123C25.2766 8.0212 23.3551 6.02344 20.9927 5.9586C18.5173 5.8884 16.4661 7.8709 16.4661 10.3516V32.9182L14.7453 31.1161C13.0936 29.3869 10.3279 29.2652 8.57964 30.8457C6.73485 32.5131 6.64292 35.3524 8.3416 37.1369L18.2316 47.6857C19.6106 49.1562 21.5584 50 23.5748 50H35.503C39.5416 50 42.8272 46.7144 42.8272 42.6758V27.4414C42.8272 24.1963 39.4043 22.0589 36.4906 23.5005ZM39.8975 42.6758C39.8975 45.0989 37.9261 47.0703 35.503 47.0703H23.5748C22.3648 47.0703 21.1964 46.5641 20.369 45.6814C20.3335 45.644 10.5007 35.1563 10.4652 35.1189C9.89876 34.5253 9.92584 33.5781 10.5438 33.0189C11.1263 32.4929 12.0605 32.547 12.6263 33.1395L16.8713 37.5847C17.7815 38.5384 19.3954 37.8914 19.3954 36.5734V10.3516C19.3954 9.52839 20.0783 8.86387 20.9129 8.88714C21.7037 8.90888 22.3469 9.59286 22.3469 10.4123C22.3469 26.5309 22.3194 19.2246 22.3194 27.9297C22.3194 28.7411 22.9801 29.4022 23.798 29.3938C24.6147 29.4022 25.2766 28.7415 25.2766 27.9297V23.2567C25.407 22.5815 26.0014 22.0703 26.7139 22.0703C27.5215 22.0703 28.1788 22.7276 28.1788 23.5352V27.9297C28.1788 28.7388 28.8345 29.3946 29.6436 29.3946C30.4527 29.3946 31.1085 28.7388 31.1085 27.9297V25.4883C31.1085 24.6807 31.7657 24.0235 32.5733 24.0235C33.3809 24.0235 34.0382 24.6807 34.0382 25.4883V27.9297C34.0382 28.7388 34.6939 29.3946 35.503 29.3946C36.3121 29.3946 36.9679 28.7388 36.9679 27.9297V27.4414C36.9679 26.6339 37.6251 25.9766 38.4327 25.9766C39.2403 25.9766 39.8975 26.6339 39.8975 27.4414V42.6758Z" fill="#23C861"/>
</svg>
