<svg width="105" height="27" viewBox="0 0 105 27" fill="none" xmlns="http://www.w3.org/2000/svg">
<path d="M0.476 0.799998H6.452C8.492 0.799998 9.98 1.28 10.916 2.24C11.852 3.176 12.32 4.628 12.32 6.596V7.604C12.32 8.9 12.104 9.956 11.672 10.772C11.264 11.588 10.628 12.176 9.764 12.536V12.608C11.732 13.28 12.716 15.032 12.716 17.864V20.024C12.716 21.968 12.2 23.456 11.168 24.488C10.16 25.496 8.672 26 6.704 26H0.476V0.799998ZM5.984 11.06C6.776 11.06 7.364 10.856 7.748 10.448C8.156 10.04 8.36 9.356 8.36 8.396V6.992C8.36 6.08 8.192 5.42 7.856 5.012C7.544 4.604 7.04 4.4 6.344 4.4H4.436V11.06H5.984ZM6.704 22.4C7.4 22.4 7.916 22.22 8.252 21.86C8.588 21.476 8.756 20.828 8.756 19.916V17.72C8.756 16.568 8.552 15.776 8.144 15.344C7.76 14.888 7.112 14.66 6.2 14.66H4.436V22.4H6.704ZM18.6307 0.799998H22.5907V26H18.6307V0.799998ZM32.2525 4.4H28.1125V0.799998H40.3525V4.4H36.2125V26H32.2525V4.4Z" fill="#23C861"/>
<path d="M51.4497 26.36C49.5537 26.36 48.1017 25.82 47.0937 24.74C46.1097 23.66 45.6177 22.136 45.6177 20.168V6.632C45.6177 4.664 46.1097 3.14 47.0937 2.06C48.1017 0.979999 49.5537 0.439999 51.4497 0.439999C53.3457 0.439999 54.7857 0.979999 55.7697 2.06C56.7777 3.14 57.2817 4.664 57.2817 6.632V9.296H53.5377V6.38C53.5377 4.82 52.8777 4.04 51.5577 4.04C50.2377 4.04 49.5777 4.82 49.5777 6.38V20.456C49.5777 21.992 50.2377 22.76 51.5577 22.76C52.8777 22.76 53.5377 21.992 53.5377 20.456V16.604H57.2817V20.168C57.2817 22.136 56.7777 23.66 55.7697 24.74C54.7857 25.82 53.3457 26.36 51.4497 26.36ZM69.0453 26.36C67.1013 26.36 65.6133 25.808 64.5813 24.704C63.5493 23.6 63.0333 22.04 63.0333 20.024V6.776C63.0333 4.76 63.5493 3.2 64.5813 2.096C65.6133 0.991999 67.1013 0.439999 69.0453 0.439999C70.9893 0.439999 72.4773 0.991999 73.5093 2.096C74.5413 3.2 75.0573 4.76 75.0573 6.776V20.024C75.0573 22.04 74.5413 23.6 73.5093 24.704C72.4773 25.808 70.9893 26.36 69.0453 26.36ZM69.0453 22.76C70.4133 22.76 71.0973 21.932 71.0973 20.276V6.524C71.0973 4.868 70.4133 4.04 69.0453 4.04C67.6773 4.04 66.9933 4.868 66.9933 6.524V20.276C66.9933 21.932 67.6773 22.76 69.0453 22.76ZM81.3354 0.799998H85.2954V26H81.3354V0.799998ZM91.8612 0.799998H96.8292L100.681 15.884H100.753V0.799998H104.281V26H100.213L95.4612 7.604H95.3892V26H91.8612V0.799998Z" fill="white"/>
</svg>
