<svg width="295" height="55" viewBox="0 0 295 55" fill="none" xmlns="http://www.w3.org/2000/svg">
<path d="M66.512 17.56H70.424C72.392 17.56 73.832 17.968 74.744 18.784C75.672 19.584 76.136 20.896 76.136 22.72C76.136 25.216 75.336 26.728 73.736 27.256L76.496 37H73.88L71.336 27.88H69.224V37H66.512V17.56ZM70.256 25.936C71.424 25.936 72.256 25.704 72.752 25.24C73.264 24.776 73.52 23.936 73.52 22.72C73.52 21.92 73.432 21.296 73.256 20.848C73.08 20.384 72.768 20.048 72.32 19.84C71.872 19.616 71.24 19.504 70.424 19.504H69.224V25.936H70.256ZM84.3333 30.136L80.1333 17.56H82.6533L85.6293 26.944L88.5573 17.56H91.1013L86.9253 30.136V37H84.3333V30.136ZM95.312 17.56H100.136C101.816 17.56 103.032 18.016 103.784 18.928C104.552 19.84 104.936 21.176 104.936 22.936C104.936 24.52 104.528 25.752 103.712 26.632C102.896 27.512 101.712 27.952 100.16 27.952H98.024V37H95.312V17.56ZM99.272 26.008C100.072 26.008 100.688 25.92 101.12 25.744C101.568 25.568 101.888 25.264 102.08 24.832C102.272 24.4 102.368 23.776 102.368 22.96C102.368 21.968 102.296 21.24 102.152 20.776C102.008 20.312 101.72 19.984 101.288 19.792C100.872 19.6 100.208 19.504 99.296 19.504H98.024V26.008H99.272ZM111.379 19.576H108.091V17.56H117.283V19.576H114.091V37H111.379V19.576ZM126.525 37.216C124.621 37.216 123.253 36.68 122.421 35.608C121.605 34.52 121.197 32.952 121.197 30.904V23.536C121.197 21.52 121.613 19.992 122.445 18.952C123.277 17.912 124.637 17.392 126.525 17.392C128.413 17.392 129.765 17.92 130.581 18.976C131.413 20.016 131.829 21.536 131.829 23.536V30.928C131.829 32.944 131.413 34.496 130.581 35.584C129.749 36.672 128.397 37.216 126.525 37.216ZM126.525 35.08C127.533 35.08 128.213 34.784 128.565 34.192C128.917 33.6 129.093 32.704 129.093 31.504V22.984C129.093 21.8 128.917 20.928 128.565 20.368C128.213 19.792 127.533 19.504 126.525 19.504C125.501 19.504 124.813 19.792 124.461 20.368C124.109 20.928 123.933 21.8 123.933 22.984V31.504C123.933 32.704 124.109 33.6 124.461 34.192C124.813 34.784 125.501 35.08 126.525 35.08ZM136.895 17.56H140.807C142.775 17.56 144.215 17.968 145.127 18.784C146.055 19.584 146.519 20.896 146.519 22.72C146.519 25.216 145.719 26.728 144.119 27.256L146.879 37H144.263L141.719 27.88H139.607V37H136.895V17.56ZM140.639 25.936C141.807 25.936 142.639 25.704 143.135 25.24C143.647 24.776 143.903 23.936 143.903 22.72C143.903 21.92 143.815 21.296 143.639 20.848C143.463 20.384 143.151 20.048 142.703 19.84C142.255 19.616 141.623 19.504 140.807 19.504H139.607V25.936H140.639ZM151.74 17.56H159.276V19.576H154.452V26.008H158.364V27.928H154.452V35.056H159.324V37H151.74V17.56ZM162.954 17.56H165.498L168.57 31.888L171.498 17.56H173.97L169.674 37H167.298L162.954 17.56ZM178.575 17.56H181.239V37H178.575V17.56ZM186.784 17.56H194.32V19.576H189.496V26.008H193.408V27.928H189.496V35.056H194.368V37H186.784V17.56ZM198.309 17.56H200.565L202.653 31.528L205.269 17.632H207.189L209.829 31.6L211.869 17.56H214.077L210.957 37H208.989L206.277 22.6L203.541 37H201.477L198.309 17.56ZM223.426 37.216C221.794 37.216 220.546 36.712 219.682 35.704C218.834 34.696 218.362 33.312 218.266 31.552L220.666 30.904C220.746 32.152 220.986 33.16 221.386 33.928C221.802 34.696 222.482 35.08 223.426 35.08C224.13 35.08 224.658 34.888 225.01 34.504C225.378 34.104 225.562 33.536 225.562 32.8C225.562 32 225.394 31.336 225.058 30.808C224.722 30.28 224.186 29.696 223.45 29.056L220.186 26.176C219.53 25.6 219.05 24.984 218.746 24.328C218.458 23.656 218.314 22.84 218.314 21.88C218.314 20.456 218.722 19.352 219.538 18.568C220.354 17.784 221.466 17.392 222.874 17.392C224.41 17.392 225.57 17.8 226.354 18.616C227.138 19.432 227.61 20.696 227.77 22.408L225.466 23.032C225.386 21.896 225.162 21.024 224.794 20.416C224.442 19.792 223.802 19.48 222.874 19.48C222.186 19.48 221.658 19.664 221.29 20.032C220.922 20.384 220.738 20.912 220.738 21.616C220.738 22.192 220.834 22.68 221.026 23.08C221.218 23.464 221.546 23.856 222.01 24.256L225.298 27.136C226.146 27.888 226.818 28.704 227.314 29.584C227.826 30.464 228.082 31.464 228.082 32.584C228.082 34.008 227.65 35.136 226.786 35.968C225.922 36.8 224.802 37.216 223.426 37.216Z" fill="white"/>
<path d="M27.4999 0C12.3363 0 0 12.3363 0 27.4999C0 42.6635 12.3363 54.9998 27.4999 54.9998C42.6635 54.9998 54.9998 42.6635 54.9998 27.4999C54.9998 12.3363 42.6635 0 27.4999 0ZM27.4999 51.4223C14.3092 51.4223 3.57769 40.6908 3.57769 27.4999C3.57769 14.309 14.3092 3.57769 27.4999 3.57769C40.6906 3.57769 51.4221 14.3092 51.4221 27.4999C51.4221 40.6906 40.6908 51.4223 27.4999 51.4223Z" fill="white"/>
<path d="M38.7182 31.9811C37.8858 31.4491 36.7797 31.6921 36.2472 32.5242C34.5192 35.2259 31.5757 36.8389 28.3735 36.8389C23.224 36.8389 19.0347 32.6494 19.0347 27.4999C19.0347 22.3504 23.224 18.1609 28.3735 18.1609C31.4807 18.1609 34.3761 19.7007 36.1188 22.2799C36.6717 23.0981 37.7834 23.3136 38.6025 22.7605C39.421 22.2075 39.6362 21.0954 39.0831 20.2767C36.6745 16.7116 32.6707 14.5833 28.3735 14.5833C21.2513 14.5833 15.457 20.3775 15.457 27.4999C15.457 34.6223 21.2513 40.4165 28.3735 40.4165C32.8021 40.4165 36.8723 38.1868 39.2612 34.4519C39.7935 33.6197 39.5504 32.5136 38.7182 31.9811Z" fill="#23C861"/>
</svg>
