<svg width="395" height="41" viewBox="0 0 395 41" fill="none" xmlns="http://www.w3.org/2000/svg">
<path d="M10.768 40.432C6.928 40.432 4.224 39.296 2.656 37.024C1.088 34.72 0.304 31.552 0.304 27.52V13.792C0.304 9.536 1.072 6.304 2.608 4.096C4.144 1.888 6.864 0.783998 10.768 0.783998C14.256 0.783998 16.752 1.728 18.256 3.616C19.792 5.504 20.56 8.288 20.56 11.968V15.04H15.424V12.304C15.424 10.512 15.344 9.136 15.184 8.176C15.024 7.216 14.608 6.448 13.936 5.872C13.296 5.296 12.256 5.008 10.816 5.008C9.344 5.008 8.24 5.328 7.504 5.968C6.8 6.576 6.336 7.44 6.112 8.56C5.888 9.648 5.776 11.12 5.776 12.976V28.384C5.776 30.368 5.936 31.92 6.256 33.04C6.576 34.16 7.088 34.96 7.792 35.44C8.528 35.92 9.536 36.16 10.816 36.16C12.192 36.16 13.216 35.856 13.888 35.248C14.56 34.64 14.976 33.808 15.136 32.752C15.328 31.696 15.424 30.256 15.424 28.432V25.552H20.56V28.432C20.56 32.304 19.824 35.28 18.352 37.36C16.912 39.408 14.384 40.432 10.768 40.432ZM30.5271 1.12H38.3511C42.2871 1.12 45.1671 1.936 46.9911 3.568C48.8471 5.168 49.7751 7.792 49.7751 11.44C49.7751 16.432 48.1751 19.456 44.9751 20.512L50.4951 40H45.2631L40.1751 21.76H35.9511V40H30.5271V1.12ZM38.0151 17.872C40.3511 17.872 42.0151 17.408 43.0071 16.48C44.0311 15.552 44.5431 13.872 44.5431 11.44C44.5431 9.84 44.3671 8.592 44.0151 7.696C43.6631 6.768 43.0391 6.096 42.1431 5.68C41.2471 5.232 39.9831 5.008 38.3511 5.008H35.9511V17.872H38.0151ZM66.1697 26.272L57.7697 1.12H62.8097L68.7617 19.888L74.6177 1.12H79.7057L71.3537 26.272V40H66.1697V26.272ZM88.1271 1.12H97.7751C101.135 1.12 103.567 2.032 105.071 3.856C106.607 5.68 107.375 8.352 107.375 11.872C107.375 15.04 106.559 17.504 104.927 19.264C103.295 21.024 100.927 21.904 97.8231 21.904H93.5511V40H88.1271V1.12ZM96.0471 18.016C97.6471 18.016 98.8791 17.84 99.7431 17.488C100.639 17.136 101.279 16.528 101.663 15.664C102.047 14.8 102.239 13.552 102.239 11.92C102.239 9.936 102.095 8.48 101.807 7.552C101.519 6.624 100.943 5.968 100.079 5.584C99.2471 5.2 97.9191 5.008 96.0951 5.008H93.5511V18.016H96.0471ZM120.262 5.152H113.686V1.12H132.07V5.152H125.686V40H120.262V5.152ZM150.554 40.432C146.746 40.432 144.01 39.36 142.346 37.216C140.714 35.04 139.898 31.904 139.898 27.808V13.072C139.898 9.04 140.73 5.984 142.394 3.904C144.058 1.824 146.778 0.783998 150.554 0.783998C154.33 0.783998 157.034 1.84 158.666 3.952C160.33 6.032 161.162 9.072 161.162 13.072V27.856C161.162 31.888 160.33 34.992 158.666 37.168C157.002 39.344 154.298 40.432 150.554 40.432ZM150.554 36.16C152.57 36.16 153.93 35.568 154.634 34.384C155.338 33.2 155.69 31.408 155.69 29.008V11.968C155.69 9.6 155.338 7.856 154.634 6.736C153.93 5.584 152.57 5.008 150.554 5.008C148.506 5.008 147.13 5.584 146.426 6.736C145.722 7.856 145.37 9.6 145.37 11.968V29.008C145.37 31.408 145.722 33.2 146.426 34.384C147.13 35.568 148.506 36.16 150.554 36.16Z" fill="#23C861"/>
<path d="M181.037 40.432C177.197 40.432 174.493 39.296 172.925 37.024C171.357 34.72 170.573 31.552 170.573 27.52V13.792C170.573 9.536 171.341 6.304 172.877 4.096C174.413 1.888 177.133 0.783998 181.037 0.783998C184.525 0.783998 187.021 1.728 188.525 3.616C190.061 5.504 190.829 8.288 190.829 11.968V15.04H185.693V12.304C185.693 10.512 185.613 9.136 185.453 8.176C185.293 7.216 184.877 6.448 184.205 5.872C183.565 5.296 182.525 5.008 181.085 5.008C179.613 5.008 178.509 5.328 177.773 5.968C177.069 6.576 176.605 7.44 176.381 8.56C176.157 9.648 176.045 11.12 176.045 12.976V28.384C176.045 30.368 176.205 31.92 176.525 33.04C176.845 34.16 177.357 34.96 178.061 35.44C178.797 35.92 179.805 36.16 181.085 36.16C182.461 36.16 183.485 35.856 184.157 35.248C184.829 34.64 185.245 33.808 185.405 32.752C185.597 31.696 185.693 30.256 185.693 28.432V25.552H190.829V28.432C190.829 32.304 190.093 35.28 188.621 37.36C187.181 39.408 184.653 40.432 181.037 40.432ZM210.828 40.432C208.108 40.432 205.98 39.888 204.444 38.8C202.94 37.712 201.9 36.192 201.324 34.24C200.748 32.288 200.46 29.84 200.46 26.896V1.12H205.644V27.136C205.644 30.08 205.98 32.32 206.652 33.856C207.356 35.392 208.748 36.16 210.828 36.16C212.908 36.16 214.284 35.392 214.956 33.856C215.66 32.32 216.012 30.08 216.012 27.136V1.12H221.148V26.896C221.148 29.84 220.86 32.288 220.284 34.24C219.708 36.192 218.668 37.712 217.164 38.8C215.66 39.888 213.548 40.432 210.828 40.432ZM231.658 1.12H239.482C243.418 1.12 246.298 1.936 248.122 3.568C249.978 5.168 250.906 7.792 250.906 11.44C250.906 16.432 249.306 19.456 246.106 20.512L251.626 40H246.394L241.306 21.76H237.082V40H231.658V1.12ZM239.146 17.872C241.482 17.872 243.146 17.408 244.138 16.48C245.162 15.552 245.674 13.872 245.674 11.44C245.674 9.84 245.498 8.592 245.146 7.696C244.794 6.768 244.17 6.096 243.274 5.68C242.378 5.232 241.114 5.008 239.482 5.008H237.082V17.872H239.146ZM261.349 1.12H269.173C273.109 1.12 275.989 1.936 277.813 3.568C279.669 5.168 280.597 7.792 280.597 11.44C280.597 16.432 278.997 19.456 275.797 20.512L281.317 40H276.085L270.997 21.76H266.773V40H261.349V1.12ZM268.837 17.872C271.173 17.872 272.837 17.408 273.829 16.48C274.853 15.552 275.365 13.872 275.365 11.44C275.365 9.84 275.189 8.592 274.837 7.696C274.485 6.768 273.861 6.096 272.965 5.68C272.069 5.232 270.805 5.008 269.173 5.008H266.773V17.872H268.837ZM291.04 1.12H306.112V5.152H296.464V18.016H304.288V21.856H296.464V36.112H306.208V40H291.04V1.12ZM315.386 1.12H319.082L330.122 26.944V1.12H334.634V40H331.178L319.994 13.456V40H315.386V1.12ZM355.29 40.432C351.45 40.432 348.746 39.296 347.178 37.024C345.61 34.72 344.826 31.552 344.826 27.52V13.792C344.826 9.536 345.594 6.304 347.13 4.096C348.666 1.888 351.386 0.783998 355.29 0.783998C358.778 0.783998 361.274 1.728 362.778 3.616C364.314 5.504 365.082 8.288 365.082 11.968V15.04H359.946V12.304C359.946 10.512 359.866 9.136 359.706 8.176C359.546 7.216 359.13 6.448 358.458 5.872C357.818 5.296 356.778 5.008 355.338 5.008C353.866 5.008 352.762 5.328 352.026 5.968C351.322 6.576 350.858 7.44 350.634 8.56C350.41 9.648 350.298 11.12 350.298 12.976V28.384C350.298 30.368 350.458 31.92 350.778 33.04C351.098 34.16 351.61 34.96 352.314 35.44C353.05 35.92 354.058 36.16 355.338 36.16C356.714 36.16 357.738 35.856 358.41 35.248C359.082 34.64 359.498 33.808 359.658 32.752C359.85 31.696 359.946 30.256 359.946 28.432V25.552H365.082V28.432C365.082 32.304 364.346 35.28 362.874 37.36C361.434 39.408 358.906 40.432 355.29 40.432ZM381.001 26.272L372.601 1.12H377.641L383.593 19.888L389.449 1.12H394.537L386.185 26.272V40H381.001V26.272Z" fill="white"/>
</svg>
