<svg width="130" height="27" viewBox="0 0 130 27" fill="none" xmlns="http://www.w3.org/2000/svg">
<path d="M0.476 0.799998H6.524C8.492 0.799998 9.968 1.328 10.952 2.384C11.936 3.44 12.428 4.988 12.428 7.028V19.772C12.428 21.812 11.936 23.36 10.952 24.416C9.968 25.472 8.492 26 6.524 26H0.476V0.799998ZM6.452 22.4C7.1 22.4 7.592 22.208 7.928 21.824C8.288 21.44 8.468 20.816 8.468 19.952V6.848C8.468 5.984 8.288 5.36 7.928 4.976C7.592 4.592 7.1 4.4 6.452 4.4H4.436V22.4H6.452ZM24.425 26.36C22.481 26.36 20.993 25.808 19.961 24.704C18.929 23.6 18.413 22.04 18.413 20.024V6.776C18.413 4.76 18.929 3.2 19.961 2.096C20.993 0.991999 22.481 0.439999 24.425 0.439999C26.369 0.439999 27.857 0.991999 28.889 2.096C29.921 3.2 30.437 4.76 30.437 6.776V20.024C30.437 22.04 29.921 23.6 28.889 24.704C27.857 25.808 26.369 26.36 24.425 26.36ZM24.425 22.76C25.793 22.76 26.477 21.932 26.477 20.276V6.524C26.477 4.868 25.793 4.04 24.425 4.04C23.057 4.04 22.373 4.868 22.373 6.524V20.276C22.373 21.932 23.057 22.76 24.425 22.76ZM42.3311 26.36C40.4111 26.36 38.9471 25.82 37.9391 24.74C36.9311 23.636 36.4271 22.064 36.4271 20.024V6.776C36.4271 4.736 36.9311 3.176 37.9391 2.096C38.9471 0.991999 40.4111 0.439999 42.3311 0.439999C44.2511 0.439999 45.7151 0.991999 46.7231 2.096C47.7311 3.176 48.2351 4.736 48.2351 6.776V8.936H44.4911V6.524C44.4911 4.868 43.8071 4.04 42.4391 4.04C41.0711 4.04 40.3871 4.868 40.3871 6.524V20.312C40.3871 21.944 41.0711 22.76 42.4391 22.76C43.8071 22.76 44.4911 21.944 44.4911 20.312V15.38H42.5111V11.78H48.2351V20.024C48.2351 22.064 47.7311 23.636 46.7231 24.74C45.7151 25.82 44.2511 26.36 42.3311 26.36Z" fill="#23C861"/>
<path d="M54.3776 0.799998H65.1776V4.4H58.3376V11.06H63.7736V14.66H58.3376V22.4H65.1776V26H54.3776V0.799998ZM76.6357 26.36C74.7397 26.36 73.2877 25.82 72.2797 24.74C71.2957 23.66 70.8037 22.136 70.8037 20.168V6.632C70.8037 4.664 71.2957 3.14 72.2797 2.06C73.2877 0.979999 74.7397 0.439999 76.6357 0.439999C78.5317 0.439999 79.9717 0.979999 80.9557 2.06C81.9637 3.14 82.4677 4.664 82.4677 6.632V9.296H78.7237V6.38C78.7237 4.82 78.0637 4.04 76.7437 4.04C75.4237 4.04 74.7637 4.82 74.7637 6.38V20.456C74.7637 21.992 75.4237 22.76 76.7437 22.76C78.0637 22.76 78.7237 21.992 78.7237 20.456V16.604H82.4677V20.168C82.4677 22.136 81.9637 23.66 80.9557 24.74C79.9717 25.82 78.5317 26.36 76.6357 26.36ZM94.2313 26.36C92.2873 26.36 90.7993 25.808 89.7673 24.704C88.7353 23.6 88.2192 22.04 88.2192 20.024V6.776C88.2192 4.76 88.7353 3.2 89.7673 2.096C90.7993 0.991999 92.2873 0.439999 94.2313 0.439999C96.1753 0.439999 97.6633 0.991999 98.6953 2.096C99.7273 3.2 100.243 4.76 100.243 6.776V20.024C100.243 22.04 99.7273 23.6 98.6953 24.704C97.6633 25.808 96.1753 26.36 94.2313 26.36ZM94.2313 22.76C95.5993 22.76 96.2832 21.932 96.2832 20.276V6.524C96.2832 4.868 95.5993 4.04 94.2313 4.04C92.8633 4.04 92.1793 4.868 92.1793 6.524V20.276C92.1793 21.932 92.8633 22.76 94.2313 22.76ZM106.521 0.799998H110.481V26H106.521V0.799998ZM117.047 0.799998H122.015L125.867 15.884H125.939V0.799998H129.467V26H125.399L120.647 7.604H120.575V26H117.047V0.799998Z" fill="white"/>
</svg>
