<svg width="139" height="27" viewBox="0 0 139 27" fill="none" xmlns="http://www.w3.org/2000/svg">
<path d="M0.476 0.799998H11.276V4.4H4.436V11.06H9.872V14.66H4.436V22.4H11.276V26H0.476V0.799998ZM20.2501 4.4H16.1101V0.799998H28.3501V4.4H24.2101V26H20.2501V4.4ZM33.8674 0.799998H37.8274V11.06H42.0754V0.799998H46.0354V26H42.0754V14.66H37.8274V26H33.8674V0.799998Z" fill="#23C861"/>
<path d="M52.5846 0.799998H63.3846V4.4H56.5446V11.06H61.9806V14.66H56.5446V22.4H63.3846V26H52.5846V0.799998ZM69.2627 0.799998H75.1307C77.1707 0.799998 78.6587 1.28 79.5947 2.24C80.5307 3.176 80.9987 4.628 80.9987 6.596V8.144C80.9987 10.76 80.1347 12.416 78.4067 13.112V13.184C79.3667 13.472 80.0387 14.06 80.4227 14.948C80.8307 15.836 81.0347 17.024 81.0347 18.512V22.94C81.0347 23.66 81.0587 24.248 81.1067 24.704C81.1547 25.136 81.2747 25.568 81.4667 26H77.4347C77.2907 25.592 77.1947 25.208 77.1467 24.848C77.0987 24.488 77.0747 23.84 77.0747 22.904V18.296C77.0747 17.144 76.8827 16.34 76.4987 15.884C76.1387 15.428 75.5027 15.2 74.5907 15.2H73.2227V26H69.2627V0.799998ZM74.6627 11.6C75.4547 11.6 76.0427 11.396 76.4267 10.988C76.8347 10.58 77.0387 9.896 77.0387 8.936V6.992C77.0387 6.08 76.8707 5.42 76.5347 5.012C76.2227 4.604 75.7187 4.4 75.0227 4.4H73.2227V11.6H74.6627ZM87.3823 0.799998H98.1823V4.4H91.3423V11.06H96.7783V14.66H91.3423V22.4H98.1823V26H87.3823V0.799998ZM109.82 26.36C107.9 26.36 106.436 25.82 105.428 24.74C104.42 23.636 103.916 22.064 103.916 20.024V0.799998H107.876V20.312C107.876 21.176 108.044 21.8 108.38 22.184C108.74 22.568 109.244 22.76 109.892 22.76C110.54 22.76 111.032 22.568 111.368 22.184C111.728 21.8 111.908 21.176 111.908 20.312V0.799998H115.724V20.024C115.724 22.064 115.22 23.636 114.212 24.74C113.204 25.82 111.74 26.36 109.82 26.36ZM122.145 0.799998H127.797L130.317 18.836H130.389L132.909 0.799998H138.561V26H134.817V6.92H134.745L131.865 26H128.553L125.673 6.92H125.601V26H122.145V0.799998Z" fill="white"/>
</svg>
