<svg width="127" height="35" viewBox="0 0 127 35" fill="none" xmlns="http://www.w3.org/2000/svg">
<g filter="url(#filter0_d)">
<path d="M4.476 0.799998H8.436V22.4H14.952V26H4.476V0.799998ZM20.451 0.799998H24.411V26H20.451V0.799998ZM34.0728 4.4H29.9328V0.799998H42.1728V4.4H38.0328V26H34.0728V4.4Z" fill="#23C861"/>
<path d="M47.6901 0.799998H58.4901V4.4H51.6501V11.06H57.0861V14.66H51.6501V22.4H58.4901V26H47.6901V0.799998ZM69.9482 26.36C68.0522 26.36 66.6002 25.82 65.5922 24.74C64.6082 23.66 64.1162 22.136 64.1162 20.168V6.632C64.1162 4.664 64.6082 3.14 65.5922 2.06C66.6002 0.979999 68.0522 0.439999 69.9482 0.439999C71.8442 0.439999 73.2842 0.979999 74.2682 2.06C75.2762 3.14 75.7802 4.664 75.7802 6.632V9.296H72.0362V6.38C72.0362 4.82 71.3762 4.04 70.0562 4.04C68.7362 4.04 68.0762 4.82 68.0762 6.38V20.456C68.0762 21.992 68.7362 22.76 70.0562 22.76C71.3762 22.76 72.0362 21.992 72.0362 20.456V16.604H75.7802V20.168C75.7802 22.136 75.2762 23.66 74.2682 24.74C73.2842 25.82 71.8442 26.36 69.9482 26.36ZM87.5438 26.36C85.5998 26.36 84.1118 25.808 83.0798 24.704C82.0478 23.6 81.5317 22.04 81.5317 20.024V6.776C81.5317 4.76 82.0478 3.2 83.0798 2.096C84.1118 0.991999 85.5998 0.439999 87.5438 0.439999C89.4878 0.439999 90.9758 0.991999 92.0078 2.096C93.0398 3.2 93.5558 4.76 93.5558 6.776V20.024C93.5558 22.04 93.0398 23.6 92.0078 24.704C90.9758 25.808 89.4878 26.36 87.5438 26.36ZM87.5438 22.76C88.9118 22.76 89.5957 21.932 89.5957 20.276V6.524C89.5957 4.868 88.9118 4.04 87.5438 4.04C86.1758 4.04 85.4918 4.868 85.4918 6.524V20.276C85.4918 21.932 86.1758 22.76 87.5438 22.76ZM99.8338 0.799998H103.794V26H99.8338V0.799998ZM110.36 0.799998H115.328L119.18 15.884H119.252V0.799998H122.78V26H118.712L113.96 7.604H113.888V26H110.36V0.799998Z" fill="white"/>
</g>
<defs>
<filter id="filter0_d" x="0.476013" y="0.439941" width="126.304" height="33.92" filterUnits="userSpaceOnUse" color-interpolation-filters="sRGB">
<feFlood flood-opacity="0" result="BackgroundImageFix"/>
<feColorMatrix in="SourceAlpha" type="matrix" values="0 0 0 0 0 0 0 0 0 0 0 0 0 0 0 0 0 0 127 0"/>
<feOffset dy="4"/>
<feGaussianBlur stdDeviation="2"/>
<feColorMatrix type="matrix" values="0 0 0 0 0 0 0 0 0 0 0 0 0 0 0 0 0 0 0.25 0"/>
<feBlend mode="normal" in2="BackgroundImageFix" result="effect1_dropShadow"/>
<feBlend mode="normal" in="SourceGraphic" in2="effect1_dropShadow" result="shape"/>
</filter>
</defs>
</svg>
